<?xml version="1.0" encoding="utf-8"?>
<!-- Generator: Adobe Illustrator 20.0.0, SVG Export Plug-In . SVG Version: 6.00 Build 0)  -->
<svg version="1.1" id="Layer_1" xmlns="http://www.w3.org/2000/svg" xmlns:xlink="http://www.w3.org/1999/xlink" x="0px" y="0px"
	 viewBox="0 0 180 180" style="enable-background:new 0 0 180 180;" xml:space="preserve">
<title>Asset 2</title>
<g id="Layer_2">
	<g id="Layer_1-2">
		<path d="M16.2,0l20.5,9.6c-0.2,0.4-0.4,1-0.8,1.2c-7.7,3.8-8,10.5-7.9,18c0.4,22.2,0.1,44.3,0.1,66.5v6.3
			C66.5,81.3,99.7,56,128.6,23.9l15.9,18.5c-13.4,3.2-24.2,10.4-34.8,17.8c-24.8,17.6-50.5,33.4-78.5,45.3c-1.6,0.9-2.6,2.5-2.9,4.3
			c-0.2,14.7-0.3,29.3-0.1,44c0.1,8.3,4.4,13.1,12.5,13.2c30.3,0.3,60.7,0.2,91,0.2c5.8,0,9.4-3.7,10.5-9c1.7-8.1,2.9-16.4,3.9-24.6
			c0.7-5.3,0.6-10.6,1.2-15.9c0.1-1.2,1.5-2.3,2.3-3.5c0.7,1.1,2,2.2,2.1,3.3c0.6,7.8,0.7,15.6,1.4,23.4c0.4,4.8,0.7,9.9,2.7,14.1
			c1.9,3.8,6,6.6,9.8,10.5c-3.2,7-10.2,10.9-18.3,13.3c-1.4,0.4-2.8,0.8-4.2,1.2h-113c-12.2-3.5-15.9-12.3-15.9-24.3
			c0.3-40.6,0.1-81.2,0.1-121.8c0-11.3-0.2-22.6-0.2-33.9H16.2z"/>
	</g>
</g>
</svg>
