<?xml version="1.0" encoding="utf-8"?>
<!-- Generator: Adobe Illustrator 20.0.0, SVG Export Plug-In . SVG Version: 6.00 Build 0)  -->
<svg version="1.1" id="Layer_1" xmlns="http://www.w3.org/2000/svg" xmlns:xlink="http://www.w3.org/1999/xlink" x="0px" y="0px"
	 viewBox="0 0 180 180" style="enable-background:new 0 0 180 180;" xml:space="preserve">
<title>Asset 3</title>
<g id="Layer_2">
	<g id="Layer_1-2">
		<path d="M0,142c11.7-2.2,20.1-10,28.7-17.3C65.9,93.5,95.1,54,114.1,9.4c0.4-0.9,0.9-1.8,1.6-3.2l23.1,18.7
			c-10.4,1.8-15.2,8.6-20.3,15.5c-25.3,34.7-53.6,66.7-86.2,94.7c-2.4,2-4.8,4-8.2,6.8l124.7-6.3c-10.2-18.5-22.5-34.5-35.4-50.3
			l3.6-3.8c11.7,10.4,23.4,20.5,34.8,30.9c5.5,5,11.1,10.2,15.8,16c4.8,6,8.4,13,12.5,19.5v13c-1.9,3.1-3.4,6.4-5.7,9.1
			c-4.9,5.7-8.4,5-11.2-2c-3.1-7.5-6.1-15.1-9-22.7c-1.1-2.9-2.3-4.1-5.7-3.6c-27.5,3.6-55.1,6.4-82.6,10.6
			c-17.6,2.7-35.5,5.2-51.4,14.8c-1.1-1.9-2.2-3.8-3.4-5.6c-3.7-5.8-7.3-11.7-11-17.5L0,142z"/>
	</g>
</g>
</svg>
