<?xml version="1.0" encoding="utf-8"?>
<!-- Generator: Adobe Illustrator 20.0.0, SVG Export Plug-In . SVG Version: 6.00 Build 0)  -->
<svg version="1.1" id="Layer_1" xmlns="http://www.w3.org/2000/svg" xmlns:xlink="http://www.w3.org/1999/xlink" x="0px" y="0px"
	 viewBox="0 0 180 180" style="enable-background:new 0 0 180 180;" xml:space="preserve">
<title>Asset 4</title>
<g id="Layer_2">
	<g id="Layer_1-2">
		<path d="M0,172.3c21.7-8.4,42.1-19.9,60.5-34.2c8.6-6.7,16.6-14.3,25.2-21.7c-21-29.9-33.2-62.6-38.9-98.5
			c-5.1,0.3-10.3-0.2-14.9,1.1c-6.4,1.8-10.4-0.3-14.1-6.4h5.6c33,0,66-0.1,98.9,0.1c6.7,0,13.1,0.4,16.2-8L152,16.4
			c-8.4,3.6-9.3,11.3-11.8,18c-10.1,27.9-22.3,54.8-39.2,79.3c-1.6,2.3-1.1,3.7,0.8,5.4c20.3,19.1,44.4,30.7,71.7,36
			c2.1,0.2,4.3,0.3,6.4,0.2v4c-7,1.6-13.3,4.3-16.4,11.5c-28-10-51.4-26.2-71.5-47.4c-0.8,0.7-1.4,1-1.8,1.5
			c-16.7,16.6-36.4,29.8-58,39c-10.4,4.5-21.5,7.7-32.2,11.5L0,172.3z M51.4,18.3c6.8,33.1,18.9,63,40.5,89.3
			c19.6-27.5,32-57.4,41.2-89.3H51.4z"/>
	</g>
</g>
</svg>
