<?xml version="1.0" encoding="utf-8"?>
<!-- Generator: Adobe Illustrator 20.0.0, SVG Export Plug-In . SVG Version: 6.00 Build 0)  -->
<svg version="1.1" id="Layer_1" xmlns="http://www.w3.org/2000/svg" xmlns:xlink="http://www.w3.org/1999/xlink" x="0px" y="0px"
	 viewBox="0 0 180 180" style="enable-background:new 0 0 180 180;" xml:space="preserve">
<title>Asset 5</title>
<g id="Layer_2">
	<g id="Layer_1-2">
		<path d="M19.1,180V88.3c0.9,0.2,1.7,0.2,2.1,0.5c7.7,6,16.6,6.8,25.9,6.2c6.6-0.4,13.3-0.1,20-0.1V0h2l18.5,8.9
			c-10.7,3.6-8.5,11.9-8.5,19.4c0,5.7,0,11.3,0,17.8h5.4c14.5,0,29-0.2,43.5,0.1c4.7,0.1,8.4-0.9,11.2-4.7c1.9-2.5,4-4.8,6.3-7.7
			l15.4,17H79.5V95h15.2c7.5,0,15-0.3,22.5,0.1c5,0.3,8.7-0.9,11-5.5c0.8-1.2,1.6-2.3,2.6-3.4l13.8,11.4c-7.9,3-7.8,8.9-7.6,15.3
			c0.5,19.3,0.7,38.6,0.8,57.9c-0.1,1.5-0.8,2.9-2,3.8c-2.9,1.5-6.1,2.5-9.9,4c0-4.8,0.2-8.9-0.1-12.9c-0.1-1.2-1.9-3.3-2.9-3.3
			c-30.3-0.2-60.6-0.1-91.7-0.1c0,2.9-0.3,5.5,0.1,8c0.7,4.3-1.3,6.3-5.1,7.4c-1.7,0.6-3.3,1.4-4.9,2.2H19.1z M31.4,100.1v56.8h94.1
			v-56.8H31.4z"/>
	</g>
</g>
</svg>
