<?xml version="1.0" encoding="utf-8"?>
<!-- Generator: Adobe Illustrator 20.0.0, SVG Export Plug-In . SVG Version: 6.00 Build 0)  -->
<svg version="1.1" id="Layer_1" xmlns="http://www.w3.org/2000/svg" xmlns:xlink="http://www.w3.org/1999/xlink" x="0px" y="0px"
	 viewBox="0 0 180 180" style="enable-background:new 0 0 180 180;" xml:space="preserve">
<title>Asset 6</title>
<g id="Layer_2">
	<g id="Layer_1-2">
		<path d="M65.9,180c0.1-9.3,0.1-18.6,0.2-27.9c0-18,0-36,0-55.5C49.7,118.3,32,137,10.3,151.8c-3.5-2.9-0.2-4.2,1.1-5.7
			c12.4-14.1,25.9-27.4,37.1-42.4C70.8,73.7,84.1,39.6,90.9,3C91,2,91,1,90.9,0h2c2.6,1.4,5.3,2.7,7.9,4.1c2.5,1.3,4.9,2.5,7.5,3.8
			c-8.2,10.1-11,22-15.1,33.6C88.5,55,81.8,67.9,75.8,81.1c-1.2,2.6-2.6,5-3.8,7.3c3.2,3.7,6.8,5,11.6,4.9c20.2-0.2,40.3-0.3,60.5,0
			c5.2,0.1,9-0.9,11.3-5.8c0.7-1.1,1.5-2.1,2.5-3l13.4,9.5c-0.1,0.5-0.1,1-0.2,1.1c-6,3.5-6.6,9-6.5,15.3
			c0.4,20.2,0.2,40.3,0.5,60.5c0,2.8-0.5,4.3-3.2,5.1s-5.5,2.1-9,3.5V99.2H77.9v5.2c0,21.7-0.2,43.3,0.1,65c0.1,4.8-1.2,7.4-5.8,8.5
			c-1.5,0.4-2.9,1.4-4.3,2.2L65.9,180z"/>
	</g>
</g>
</svg>
