<?xml version="1.0" encoding="utf-8"?>
<!-- Generator: Adobe Illustrator 20.0.0, SVG Export Plug-In . SVG Version: 6.00 Build 0)  -->
<svg version="1.1" id="Layer_1" xmlns="http://www.w3.org/2000/svg" xmlns:xlink="http://www.w3.org/1999/xlink" x="0px" y="0px"
	 viewBox="0 0 180 180" style="enable-background:new 0 0 180 180;" xml:space="preserve">
<title>Asset 7</title>
<g id="Layer_2">
	<g id="Layer_1-2">
		<path d="M0,177.9c14.2-15.1,25.1-32.5,35-50.6c14.9-26.8,22.8-55.8,27-85.9c1.9-13.8,2.7-27.7,4-41.5h3l13.5,7
			c-2.5,11-5.2,21.7-7.4,32.5c-2.5,12.3-4.7,24.8-7.1,37.8h53c10.2,0,10.2,0,16.5-8.2L150,79.9c-8.6,5.7-10,15.3-14.4,23.1
			c-6.4,11.2-12.7,22.5-19.4,34.3c12.1,9.2,25.7,17,40.9,21.5c7.4,2.2,15.2,3.4,22.8,5.1v3c-7.6,1.1-14,4.1-17.4,11.7
			c-19.5-8.5-37.6-19.9-53.9-33.6c-15.1,12.7-31.9,21.5-50.2,27.6c-8.1,2.7-16.4,4.9-24.6,7.3h-5c-0.6-3.2,2-3.2,4-3.9
			c18.8-6.4,36.9-14.2,53-26.2c5.2-3.9,10-8.4,15-12.8c-12-15.8-21.1-31.9-26.4-50c-0.7-2.5-1.1-4.5-4.7-4.5s-4.4,1.6-5.3,4.4
			c-8.9,26.4-21.9,50.6-40.3,71.7C17.8,166,10.8,172.8,4,179.9C2.8,179.1-0.3,181.9,0,177.9z M107.3,129.4
			c10.2-14.4,17.4-29.7,23.2-46.4H77.9C84.9,100.4,93.6,116.2,107.3,129.4L107.3,129.4z"/>
	</g>
</g>
</svg>
