<?xml version="1.0" encoding="utf-8"?>
<!-- Generator: Adobe Illustrator 20.0.0, SVG Export Plug-In . SVG Version: 6.00 Build 0)  -->
<svg version="1.1" id="Layer_1" xmlns="http://www.w3.org/2000/svg" xmlns:xlink="http://www.w3.org/1999/xlink" x="0px" y="0px"
	 viewBox="0 0 180 180" style="enable-background:new 0 0 180 180;" xml:space="preserve">
<title>Asset 8</title>
<g id="Layer_2">
	<g id="Layer_1-2">
		<path d="M155.4,0l14.9,16.3h-6.9c-45,0-90,0.1-134.9-0.1c-4.5,0-5.9,1.1-5.9,5.8c0.2,46.7,0.2,93.3,0,139.9c0,4.4,1,5.9,5.7,5.9
			c37-0.2,74-0.2,111,0c5.1,0,9-1,12.1-5.1c1.8-2.4,3.9-4.5,6.1-7l15.5,17.2h-6.2c-45.7,0-91.3,0.1-136.9-0.1c-5.9,0-9,2-10.5,7.2
			h-2l-10.5-9.2c1.6-3.4,4-6.2,4-9.1c0.2-42.8,0.2-85.6,0.2-128.4c0-9.6,0-19.1,0-29c1.4,0.7,2.7,1.4,4,2.3
			c4.9,3.7,10.3,4.6,16.3,4.6c34.3-0.2,68.6-0.5,103,0.2c9.6,0.2,14.3-4.8,19-11.3L155.4,0z"/>
	</g>
</g>
</svg>
