<?xml version="1.0" encoding="utf-8"?>
<!-- Generator: Adobe Illustrator 20.0.0, SVG Export Plug-In . SVG Version: 6.00 Build 0)  -->
<svg version="1.1" id="Layer_1" xmlns="http://www.w3.org/2000/svg" xmlns:xlink="http://www.w3.org/1999/xlink" x="0px" y="0px"
	 viewBox="0 0 180 180" style="enable-background:new 0 0 180 180;" xml:space="preserve">
<title>Asset 9</title>
<g id="Layer_2">
	<g id="Layer_1-2">
		<path d="M142.8,180c0.4-5-3.2-7.7-6.7-9.7c-5.4-2.8-11-5.3-16.8-7.4c-2.4-1-4.4-1.8-2.9-5.3l17.5,1.9c1.3,0.1,2.6,0.4,4,0.4
			c10.6,0.6,13.1-1.7,13.1-12.3c0-43.3,0-86.6,0-129.9c0-1.5-0.1-2.9-0.2-4.6H23.7v5.9c0,49.8-0.1,99.6,0.1,149.4
			c0,5.4-1.4,8.3-6.7,9.4c-1.5,0.3-2.9,1.4-4.3,2.1h-2c0.3-9.4,0.9-18.9,1-28.4c0.1-42.3,0.1-84.5,0-126.8c0-8.3-0.6-16.6-1-24.9h2
			C18.2,4.9,23.9,8.3,32,8.2c36.3-0.4,72.5-0.4,108.8,0c7.2,0.1,12.1-1.6,14.9-8.2h2l11.5,10.9c-7.9,2.4-6.5,8.6-6.5,14.4
			c0,43.1-0.1,86.1,0.1,129.2c0,10.8-4.6,18.4-13.9,23.5c-1.1,0.6-2.1,1.4-3.2,2.1L142.8,180z"/>
	</g>
</g>
</svg>
