<?xml version="1.0" encoding="utf-8"?>
<!-- Generator: Adobe Illustrator 20.0.0, SVG Export Plug-In . SVG Version: 6.00 Build 0)  -->
<svg version="1.1" id="Layer_1" xmlns="http://www.w3.org/2000/svg" xmlns:xlink="http://www.w3.org/1999/xlink" x="0px" y="0px"
	 viewBox="0 0 180 180" style="enable-background:new 0 0 180 180;" xml:space="preserve">
<title>Asset 10</title>
<g id="Layer_2">
	<g id="Layer_1-2">
		<path d="M75.7,0l19.4,8.1c-8.3,5.5-5.3,13.5-5.4,20.7c0,4.5,0.7,8.9,1.1,13.9c10.2,0,20.2-0.6,30.1,0.2c9.2,0.7,16.6-1.3,22-9.1
			c0.4-0.5,0.9-1,1.5-1.3l15.9,15.4H90.8c2.7,25,5.3,49.3,16.2,73.1c11.8-18.5,18-38.4,25.5-58.6L150,75.6c-7.4,1.9-9,7.6-11.6,12.8
			c-7.3,14.9-15,29.6-22.9,44.9c8.8,10.3,19.4,20.1,33.5,26.3c3-10.5,5.7-20.4,8.6-30.2c0.4-1.2,1.8-2.2,2.7-3.2
			c0.4,1.3,1.3,2.6,1.2,3.8c-0.6,7.6-1.2,15.2-2.2,22.8s-0.1,14.6,3.4,21.3c0.5,1.2,0.8,2.5,1.1,3.8c-3.1-0.2-5.7-0.1-8.1-0.7
			c-19.8-4.4-34.5-16.6-47.3-31.5l-2.8-3.2c-3.6,3.3-6.9,6.4-10.4,9.5c-11.7,10.6-24.9,19.5-39.3,26.2c-0.8,0.5-1.6,1-2.4,1.7h-2
			c-2.2-3.2,0.4-4.3,2.5-5.7c15.3-10.2,29.3-21.9,41.1-36.2c2.7-3.3,3.4-5.7,1.4-10c-9.1-18.7-13.1-38.9-15.9-59.4
			C79.9,62,79.2,55.3,78.3,48H16.2c-0.7-4.4,1.2-5.3,4.7-5.3c17,0.1,34,0,51,0h5.7L73.7,0H75.7z"/>
	</g>
</g>
</svg>
