<?xml version="1.0" encoding="utf-8"?>
<!-- Generator: Adobe Illustrator 20.0.0, SVG Export Plug-In . SVG Version: 6.00 Build 0)  -->
<svg version="1.1" id="Layer_1" xmlns="http://www.w3.org/2000/svg" xmlns:xlink="http://www.w3.org/1999/xlink" x="0px" y="0px"
	 viewBox="0 0 180 180" style="enable-background:new 0 0 180 180;" xml:space="preserve">
<title>Asset 11</title>
<g id="Layer_2">
	<g id="Layer_1-2">
		<path d="M77.9,180c0.2-4.7-2.5-8-6.1-10.1c-3.7-2.1-7.6-3.3-11.3-5.1c-1.3-0.6-2.2-1.9-3.3-2.9c1.2-0.4,2.5-1.1,3.8-1.1
			c5.7,0,11.3,0.1,17,0.3c3.8,0.1,6-1.5,6.2-5.4c0.1-1.8,0.4-3.6,0.4-5.5c0-22,0-44,0-66V80c-10.9,0-21.5-0.3-32,0.1
			c-7.6,0.3-7.6,0.8-13.3-5.8h43.6V0h2l15.6,7.2c-8.1,4.5-6.3,11.9-6.3,18.6c0,14.2,0,28.3,0,42.5c0,1.8,0,3.6,0,5.8
			c7.8,0,14.9,0.3,22-0.2c1.9-0.1,3.8-2.3,5.4-3.9c1.8-1.7,3.3-3.7,5.1-5.9l14,14.9H90.1l-0.2,0.9l12.3,6.8
			c-8.5,5.1-6.2,13.1-6.3,20.5c-0.1,17-0.4,34,0.1,50.9c0.3,10.2-3.9,16.8-13,20.7c-0.7,0.4-1.4,0.8-2,1.2L77.9,180z"/>
	</g>
</g>
</svg>
