<?xml version="1.0" encoding="utf-8"?>
<!-- Generator: Adobe Illustrator 20.0.0, SVG Export Plug-In . SVG Version: 6.00 Build 0)  -->
<svg version="1.1" id="Layer_1" xmlns="http://www.w3.org/2000/svg" xmlns:xlink="http://www.w3.org/1999/xlink" x="0px" y="0px"
	 viewBox="0 0 180 180" style="enable-background:new 0 0 180 180;" xml:space="preserve">
<title>Asset 12</title>
<g id="Layer_2">
	<g id="Layer_1-2">
		<path d="M114.9,0l15.4,8.9c-6.5,3.4-5.5,9.3-5.5,14.9c0,37,0,74,0.1,111c0,11.3,0.3,22.6,0.8,33.9c0.2,3.9-0.9,6.2-4.7,7.5
			c-2.2,0.8-4.1,2.5-6.2,3.8h-2v-49.8c-0.6-0.3-1.2-0.4-1.8-0.5c-17.6,0.6-35.1,1.5-52.7,1.6c-2.9,0-5.8-3.5-8.7-5.3l0.5-1.6h62.6V0
			H114.9z"/>
	</g>
</g>
</svg>
