<?xml version="1.0" encoding="utf-8"?>
<!-- Generator: Adobe Illustrator 20.0.0, SVG Export Plug-In . SVG Version: 6.00 Build 0)  -->
<svg version="1.1" id="Layer_1" xmlns="http://www.w3.org/2000/svg" xmlns:xlink="http://www.w3.org/1999/xlink" x="0px" y="0px"
	 viewBox="0 0 180 180" style="enable-background:new 0 0 180 180;" xml:space="preserve">
<title>Asset 13</title>
<g id="Layer_2">
	<g id="Layer_1-2">
		<path d="M121.6,0l12.6,11.2c-0.2,0.3-0.2,0.7-0.4,0.8c-6.8,2.9-9.8,8.7-12.1,15.4c-3.9,11.2-8.4,22.3-12.9,34.3
			c9,0,17.3,0.6,25.4-0.3c3-0.3,5.6-4.2,8.7-6.7l12.5,13.2c-8,2.2-10,8.8-13.1,14.6c-9.4,17.8-20,34.9-34.2,50.3
			c17.9,18,39.9,27.2,64.6,31.1l-0.1,1.6c-3.2,1.4-6.5,2.5-9.4,4.3s-5.7,4.4-9.2,7.2c-12.1-3.8-27.2-13.7-54-36.1
			c-15,12.1-32.1,21.4-50.3,27.5c-11.6,4-23.5,7.1-35.3,10.6c-0.9,0.3-1.8,0.7-2.7,1.1h-4c-1.1-3.9,1.9-4.2,4.4-4.9
			c20.4-6.1,40.3-13.7,58.4-25.2c8-5,15.4-10.9,23.3-16.6C75.4,106.5,62,78.6,56.4,47.6l1.8-0.9c0.9,1.4,1.7,2.8,2.4,4.3
			c7.9,22.7,17.9,44.4,32.6,63.6c2.4,3.2,5,6.2,7.7,9.6c15.1-16.7,26.8-36.1,34.7-57.2c-8.9,0-17.4-0.4-25.8,0.2
			c-2.5,0.2-4.7,3.2-7.3,5L92.5,61.7c6.6-6,9.9-14.2,12.5-22.9s5.2-17.1,8-26.1c-2-0.2-3.4-0.4-4.8-0.4c-12.8,0-25.7,0-38.5,0
			c-2,0-4.1-0.1-5.9,0.6c-5.9,2.4-8.7-1.2-12.2-5.9h14.6c13,0,26-0.4,39,0.2c6.6,0.3,11.1-1.9,14.4-7.2L121.6,0z"/>
	</g>
</g>
</svg>
