<?xml version="1.0" encoding="utf-8"?>
<!-- Generator: Adobe Illustrator 20.0.0, SVG Export Plug-In . SVG Version: 6.00 Build 0)  -->
<svg version="1.1" id="Layer_1" xmlns="http://www.w3.org/2000/svg" xmlns:xlink="http://www.w3.org/1999/xlink" x="0px" y="0px"
	 viewBox="0 0 180 180" style="enable-background:new 0 0 180 180;" xml:space="preserve">
<title>Asset 14</title>
<g id="Layer_2">
	<g id="Layer_1-2">
		<path d="M113,0l17.9,15c0.9,0.7,1.7,1.5,2.6,2.3c-0.4,0.6-0.6,1.1-0.9,1.3c-8.9,4.7-9.3,12.8-9.7,21.6
			c-0.7,15.4-2.5,30.8-3.8,46.2c-1.4,15.7-10.2,25.8-24.2,32c-2.9,1.3-5.8,2.3-9,3.7c-3.1-15.4-15.2-20.4-27.6-24.7
			c-4.1-1.4-5.4-3.1-4-7.3c9.3,0.6,18.5,1.3,27.8,1.9c1.5,0.1,3,0,4.5,0c8.3-0.2,12-2.7,13.5-11c1.4-8.5,2.3-17.1,2.8-25.8
			c0.7-10.4,1-20.9,1.5-31.7H37c-0.1,1.8-0.2,3.6-0.2,5.4c0,37.5,0,75,0,112.5c0,1.8,0,3.7,0.2,5.5c0.8,10.7,6.2,16.5,16.7,16.6
			c23,0.3,46,0.2,69,0c6.8,0,11.4-4.9,12.3-13.3c1.1-9.7,1.6-19.6,2.3-29.3c0.3-4.4,0.5-8.9,0.7-13.6h7c0.3,5.8,0.5,11.5,1,17.2
			c0.4,5.6,1.1,11.2,2.2,16.8c1.4,6.9,5.6,12,11.6,15.6c1.4,0.8,2.8,1.6,4.4,2.6c-5.5,10.1-13.5,16.6-24.4,19.4
			c-0.9,0.3-1.8,0.7-2.7,1.2H36c-14-4.1-18.2-14.7-18.8-27.8c-0.2-3.8,0.1-7.6,0.1-11.5C16.8,93.8,16.4,46.9,16,0h1
			c5.9,4.3,11.7,8.7,17.7,12.9c1.3,0.8,2.7,1.1,4.2,1.1c19.8,0.1,39.7,0.1,59.5,0c1.6,0,3.1-0.6,4.2-1.7c3-4,5.6-8.2,8.4-12.3L113,0
			z"/>
	</g>
</g>
</svg>
