<?xml version="1.0" encoding="utf-8"?>
<!-- Generator: Adobe Illustrator 20.0.0, SVG Export Plug-In . SVG Version: 6.00 Build 0)  -->
<svg version="1.1" id="Layer_1" xmlns="http://www.w3.org/2000/svg" xmlns:xlink="http://www.w3.org/1999/xlink" x="0px" y="0px"
	 viewBox="0 0 180 180" style="enable-background:new 0 0 180 180;" xml:space="preserve">
<title>Asset 15</title>
<g id="Layer_2">
	<g id="Layer_1-2">
		<path d="M180,126c-6.5,0.6-10.8,4.3-14,9.8c-0.8,1.4-2.8,3-4.1,2.9c-21.2-1.1-42.7-1.1-63.7-4.1c-23.7-3.4-43.4-15.3-57.3-35.5
			c-1-1.5-0.4-4,0.3-6.3c11.4,12.5,24.4,21.6,40.5,26.8V55c-2.7,0-5.3,0-7.9,0L16.4,56c-0.7-0.1-1.3,0-2,0.2
			C9.2,58.3,5.2,56.9,2,52.4c-0.6-0.6-1.3-1-2-1.4v-1c2.2-0.1,4.3-0.3,6.5-0.3c43.5,0,87-0.1,130.4,0.1c6,0,10.7-1.1,14.3-6
			c0.9-1,1.8-1.9,2.8-2.7l14.7,15.4c-13.9,0.7-23.4,8.6-33.1,16l-1.5-0.4c0.2-1.6-0.1-3.5,0.7-4.7c2.7-4,5.8-7.7,9.2-12.1H93
			c0,4.6,0,9.2,0,13.8c0,16,0.2,32-0.1,48c-0.1,4.3,1.1,5.5,5.4,6c26.5,2.9,52.8,1.1,79.2-1.2c0.8,0,1.7,0,2.5,0L180,126z"/>
	</g>
</g>
</svg>
