<?xml version="1.0" encoding="utf-8"?>
<!-- Generator: Adobe Illustrator 20.0.0, SVG Export Plug-In . SVG Version: 6.00 Build 0)  -->
<svg version="1.1" id="Layer_1" xmlns="http://www.w3.org/2000/svg" xmlns:xlink="http://www.w3.org/1999/xlink" x="0px" y="0px"
	 viewBox="0 0 180 180" style="enable-background:new 0 0 180 180;" xml:space="preserve">
<title>Asset 16</title>
<g id="Layer_2">
	<g id="Layer_1-2">
		<path d="M131.3,180c-12.8-9.2-26.2-17.8-38.3-27.8c-31.3-26-51.3-59.6-62.4-98.3c-4.8-16.7-7.6-34-11.4-51c-0.2-1-0.6-1.9-0.9-2.8
			h8c2.1,8.7,4.2,17.4,6.3,26.1c0.7,3,2.4,4.1,5.7,4.1c20.5-0.2,41,0,61.5-0.2c2.3-0.2,4.5-1.2,6.2-2.9c3.8-3.6,7.3-7.8,11.3-12.2
			l23.9,25.2c-20,3.8-31.2,18.5-43.4,31.6c-9.2,9.8-17.9,20.1-27.1,30.5c7.7,9.9,16.5,18.8,26.4,26.6c18.1,14.4,39,23.3,60.8,30.3
			c4.1,1.3,4,1.3,4,5.5c-11.2,1.9-22.3,4-28.4,15.4L131.3,180z M104.1,39.3H36.1c7.7,20.4,16.4,39.7,30,57.1L104.1,39.3z"/>
	</g>
</g>
</svg>
