<?xml version="1.0" encoding="utf-8"?>
<!-- Generator: Adobe Illustrator 20.0.0, SVG Export Plug-In . SVG Version: 6.00 Build 0)  -->
<svg version="1.1" id="Layer_1" xmlns="http://www.w3.org/2000/svg" xmlns:xlink="http://www.w3.org/1999/xlink" x="0px" y="0px"
	 viewBox="0 0 180 180" style="enable-background:new 0 0 180 180;" xml:space="preserve">
<title>Asset 18</title>
<g id="Layer_2">
	<g id="Layer_1-2">
		<path d="M6.7,180c-0.7-2.9,0.9-3.9,3.3-5c18.1-8.2,35.7-17.4,49.3-32.3c12.4-13.5,23-28.5,25.7-47c2-13.7,1.7-27.8,2.4-42.4
			c-3.2,0-5.5,0-7.8,0l-46.9,0.6c-0.8-0.1-1.7,0-2.5,0.2c-6.2,2.7-10-0.3-13.7-6h5.6c25.1,0,50.3-0.1,75.4,0.1c4.6,0,7-1.3,8.6-5.4
			c5-13.2,10.2-26.2,15.2-39.4c0.3-1.1,0.3-2.3,0.3-3.5h2l18.1,12.7c-10.6,1.5-13.6,9.8-18.3,16.4c-4.3,6.1-8.8,12.1-13.8,19h15.4
			c2.3,0,4.7-0.1,7,0c10.5,0.6,21,1.2,26.1-10L173.4,53H100c-0.5,8.8-1.2,16.9-1.2,25c0,24.2-7.9,45.3-24.4,63.1
			C60.5,156,43.5,166.3,24.9,174c-5,2.1-10.1,4-15.1,6H6.7z"/>
		<path d="M82.5,30.3c0,0.7-0.2,1.4-0.4,2c-2.1,3.2-4.3,6.2-6.5,9.3c-2.3-2.6-5.4-4.8-6.6-7.8C64.9,23.6,59,14.3,51.6,6.2
			c-0.8-0.9-1-2.5-1.4-3.7c1.3,0.1,2.8-0.2,3.8,0.4c7.2,4.7,14.4,9.4,21.4,14.5C79.4,20.4,82.3,24.5,82.5,30.3z"/>
	</g>
</g>
</svg>
