<?xml version="1.0" encoding="utf-8"?>
<!-- Generator: Adobe Illustrator 20.0.0, SVG Export Plug-In . SVG Version: 6.00 Build 0)  -->
<svg version="1.1" id="Layer_1" xmlns="http://www.w3.org/2000/svg" xmlns:xlink="http://www.w3.org/1999/xlink" x="0px" y="0px"
	 viewBox="0 0 180 180" style="enable-background:new 0 0 180 180;" xml:space="preserve">
<title>Asset 19</title>
<g id="Layer_2">
	<g id="Layer_1-2">
		<path d="M83.9,180c-1.5-9.6-9.2-12.2-16.8-15c-1.6-0.6-3-1.9-4.5-2.9l0.8-1c6.3,0,12.6,0,18.9,0s7.7-1.4,7.7-7.6c0-23,0-46,0-69
			c0-1.8,0-3.6,0-6.9l18.2,8.9c-8.8,4.9-6.9,12.7-7,19.8c0,17.5-0.3,35,0.1,52.5c0.3,9.9-3.7,16.2-12.6,19.9
			c-0.7,0.4-1.3,0.8-1.8,1.4H83.9z"/>
		<path d="M90.9,0L106,7.1c-10.7,7.6-4.5,18.2-6.4,27.5c10.4,2,19.2,1.4,24.9-9.2L137,40.1H99.9v33.8H89.3c-0.2-0.4-0.5-0.7-0.5-1
			c0-24.3,0-48.7,0.1-73L90.9,0z"/>
		<path d="M43,161.3c11-19.4,17.7-40.2,21.5-62.8l15.5,8.8c-4.7,8.3-8.9,16.3-13.6,24.1c-6,9.9-12.4,19.6-18.8,29.3
			c-0.7,1-2.5,1.3-3.8,2L43,161.3z"/>
	</g>
</g>
</svg>
