<?xml version="1.0" encoding="utf-8"?>
<!-- Generator: Adobe Illustrator 20.0.0, SVG Export Plug-In . SVG Version: 6.00 Build 0)  -->
<svg version="1.1" id="Layer_1" xmlns="http://www.w3.org/2000/svg" xmlns:xlink="http://www.w3.org/1999/xlink" x="0px" y="0px"
	 viewBox="0 0 180 180" style="enable-background:new 0 0 180 180;" xml:space="preserve">
<title>Asset 20</title>
<g id="Layer_2">
	<g id="Layer_1-2">
		<path d="M0,77.2c27.8,0.1,55.6,0.1,83.4,0.2c0.6-0.1,1.2-0.3,1.7-0.6V44.5l10.7,6.7l41.5-34.7c-2.5-0.1-4.1-0.3-5.6-0.3
			c-27.5,0-55,0-82.4,0c-3.6,0-7.5-0.1-10.9,1.1c-6.2,2.1-9.8-0.6-13.3-6.1h5.5c33.1,0,66.3-0.1,99.4,0.1c5.9,0.1,10.7-1,14.4-5.8
			c1.3-1.3,2.6-2.6,4.1-3.7l14.6,16.8c-24.8,5.4-42.7,22.2-63.5,34.9l7.1,5.6c-11.6,2.2-8.5,10.6-8.5,18.4h8c13,0,26-0.2,39,0.1
			c4.2,0.1,7.3-0.9,10-4.2c2.3-2.8,5-5.3,7.6-8.1l17.5,16v2H98c-0.1,1.7-0.2,3.5-0.2,5.2c0,21.1,0,42.3,0,63.5
			c0,14.6-5.9,22.3-20.2,26.2c-3-11-12.6-13.6-21.7-16.8c-2.6-0.9-5.2-1.5-3.6-5.4c7.9,0.7,15.6,1.4,23.4,2c7.5,0.6,9.9-1.4,10-8.8
			c0.2-21.3,0-42.6,0-63.9c-0.1-0.6-0.2-1.3-0.4-1.9c-1.5-0.1-3.1-0.3-4.7-0.3c-19.2,0-38.3-0.1-57.5,0c-3.7-0.1-7.3,0.3-10.9,1.1
			c-4,0.9-7,0.5-9.4-3c-0.6-0.8-1.8-1.2-2.8-1.8V77.2z"/>
	</g>
</g>
</svg>
