<?xml version="1.0" encoding="utf-8"?>
<!-- Generator: Adobe Illustrator 20.0.0, SVG Export Plug-In . SVG Version: 6.00 Build 0)  -->
<svg version="1.1" id="Layer_1" xmlns="http://www.w3.org/2000/svg" xmlns:xlink="http://www.w3.org/1999/xlink" x="0px" y="0px"
	 viewBox="0 0 180 180" style="enable-background:new 0 0 180 180;" xml:space="preserve">
<title>Asset 21</title>
<g id="Layer_2">
	<g id="Layer_1-2">
		<path d="M120.8,0l13,10.9c-0.2,0.4-0.3,1-0.6,1.1c-7.7,3.1-7.7,10-8.5,16.8c-1.2,9.5-2.8,19-4.8,28.5c-2.8,13.1-11.9,19.7-24.7,23
			C93,69.5,84,66.6,75.8,62.8c-1.6-0.8-2.9-2.3-4.4-3.4l0.9-1.5c5.2,0.9,10.4,1.8,15.6,2.6c2.5,0.4,4.9,0.7,7.4,0.8
			c7.1,0.3,10.9-2.2,12.9-9.2c1.1-4,2-8.1,2.5-12.2c1-8,1.7-16.1,2.6-24.6H32.1v74h5.6c33,0,66-0.2,99,0.1c5.6,0,9.6-1.1,12.1-6.2
			c0.8-1.2,1.6-2.3,2.6-3.3l16.3,11.8c-8.5,3.3-8.8,9.8-9.4,16.9c-0.9,11.9-3,23.7-4.6,35.6c-2.4,16.9-9.3,30.4-26.9,35.9h-3
			c-0.4-6-4.2-9.8-9-12.2s-10.3-4.5-15.6-6.5c-3.1-1.2-3.1-1.1-2.9-5.3c6.2,0.8,12.4,1.6,18.6,2.4c3.1,0.4,6.3,0.7,9.4,0.9
			c7.6,0.4,10.1-0.5,12.3-8c3-10.7,5.3-21.5,7.1-32.5c1.3-7.6,1.6-15.5,2.4-23.9h-6.4c-33.6,0-67.3,0.1-100.9-0.1
			c-4.9,0-8.7,0.8-11.1,5.4c-0.5,0.9-1,1.7-1.7,2.9L12.3,91.3c8.4-4.2,6.2-11.6,6.2-18.3c-0.1-22.2-0.4-44.3-0.6-66.4
			c0-1.4,0-2.8,0-4.5c1,0.2,1.5,0.2,1.9,0.5c8.2,6.6,17.8,6.9,27.8,6.7c18.5-0.4,37-0.6,55.4,0.1c8,0.3,12.9-2.3,15.8-9.3L120.8,0z"
			/>
	</g>
</g>
</svg>
