<?xml version="1.0" encoding="utf-8"?>
<!-- Generator: Adobe Illustrator 20.0.0, SVG Export Plug-In . SVG Version: 6.00 Build 0)  -->
<svg version="1.1" id="Layer_1" xmlns="http://www.w3.org/2000/svg" xmlns:xlink="http://www.w3.org/1999/xlink" x="0px" y="0px"
	 viewBox="0 0 180 180" style="enable-background:new 0 0 180 180;" xml:space="preserve">
<title>Asset 22</title>
<g id="Layer_2">
	<g id="Layer_1-2">
		<path d="M86,0l19.7,11.9c-11.6,7.4-13,20.7-19.7,32.3c13,0,24.8,0.1,36.6-0.1c1.1,0,2.5-1.3,3.3-2.4c1.9-2.5,3.5-5.2,5.5-8.4
			L148.2,46c-0.1,0.5-0.1,1-0.2,1.1c-6.2,3.9-8.2,10.2-10.1,16.9c-6.2,21.7-14.2,42.6-27.1,61.3c-16.3,23.7-39.2,39-64.9,50.7
			c-2.6,1.2-5.2,2.7-7.8,4h-3c-1.2-3.3,1.2-4.2,3.4-5.5c19.9-11.5,37.8-25.4,52.3-43.4c16.7-20.8,25.6-45.2,32.2-70.6
			c0.7-2.7,1.3-5.5,1.9-8.2c0.1-0.3-0.1-0.6-0.3-1.5c-13.2,0-26.4-0.1-39.7,0.2c-1.3,0-2.9,1.9-3.9,3.3c-1.6,2.3-2.8,4.8-4.4,7.7
			c4.3,1.8,8.3,3.3,12.1,5c3.4,1.4,6.6,3,9.8,4.8c8.2,4.8,10.1,10.8,6.2,19.4c-0.8,1.8-2.8,4.6-4,4.4c-1.8-0.2-3.7-2.3-5.1-4
			C89,83.2,82.4,74.7,75.3,65.8c-5.7,8.6-10,16.4-15.5,23.1c-6.9,8.4-14.8,16.1-22.5,24c-2.3,2.4-2.6,2.1-5.5-0.5
			C56.9,82.4,71.1,47.2,81.5,10.1C82.4,6.8,83.2,3.4,84,0H86z"/>
	</g>
</g>
</svg>
