<?xml version="1.0" encoding="utf-8"?>
<!-- Generator: Adobe Illustrator 20.0.0, SVG Export Plug-In . SVG Version: 6.00 Build 0)  -->
<svg version="1.1" id="Layer_1" xmlns="http://www.w3.org/2000/svg" xmlns:xlink="http://www.w3.org/1999/xlink" x="0px" y="0px"
	 viewBox="0 0 180 180" style="enable-background:new 0 0 180 180;" xml:space="preserve">
<title>Asset 23</title>
<g id="Layer_2">
	<g id="Layer_1-2">
		<path d="M109.5,0l18.3,11.3c-8.7,3.1-7.3,10.1-7.3,16.7c0,24.1,0,48.3,0,72.4v6c8.2-0.9,15.9-2.2,23.7-2.5
			c6.7-0.3,11.3-2.9,14.4-8.6c0.7-1,1.6-1.9,2.5-2.7l15.9,12.8l-56.1,6.3v63l-11.4,5.3h-2v-66.6c-16.4,1.9-33.2,3.9-50,5.9
			c-12.2,1.5-24.4,3-36.6,4.6c-1.3,0.1-2.6,0.4-3.8,0.8c-7.2,2.7-8,2.5-14.1-4.3l104.4-12.3V0H109.5z"/>
		<path d="M79.9,38.8c-0.2,1.3,0,2.9-0.7,3.9c-1.6,2.4-3.6,4.5-5.4,6.8c-2.1-1.8-4.7-3.3-6.3-5.5c-6.1-8.5-12-17.1-17.9-25.8
			c-0.8-1.5-1.5-3-2-4.6c1.8,0.2,3.9-0.2,5.2,0.6C60.4,18.6,68.1,23,75,28.3c2.8,2.1,4,6.4,5.9,9.7L79.9,38.8z"/>
		<path d="M31,61.9c0.9-0.2,2.4-1,3.4-0.5c8.4,3.8,17.1,7.3,25,11.9c7,4.1,8,12.2,3.7,19.2c-2.1,3.3-4.7,3.7-7.2,0.7
			c-1.4-1.6-2.3-3.7-3.6-5.3C45.3,79.4,38.4,71,31,61.9z"/>
	</g>
</g>
</svg>
