<?xml version="1.0" encoding="utf-8"?>
<!-- Generator: Adobe Illustrator 20.0.0, SVG Export Plug-In . SVG Version: 6.00 Build 0)  -->
<svg version="1.1" id="Layer_1" xmlns="http://www.w3.org/2000/svg" xmlns:xlink="http://www.w3.org/1999/xlink" x="0px" y="0px"
	 viewBox="0 0 180 180" style="enable-background:new 0 0 180 180;" xml:space="preserve">
<title>Asset 24</title>
<g id="Layer_2">
	<g id="Layer_1-2">
		<path d="M46.3,180c0-1.2-0.4-2.7,0.2-3.5c15.8-23.2,19.2-49.4,19.1-76.6c-0.2-28.8-0.3-57.6-0.5-86.3c0-1,0.1-1.9,0.2-3.4
			c0.7,0.3,1.4,0.8,2,1.2c6.2,6.7,13.4,6.8,21.2,3.5c8.2-3.5,16.5-6.8,24.7-10.5c2-0.9,3.5-2.9,5.2-4.4h2l9.9,12.9l-53.7,9.4v89.4
			h11.7c6.2,0,12.4-0.4,18.5,0.1s10.7-1.2,13.5-7.5l13.5,10.2c-10.5,4.5-6.6,13.9-8.5,21.2c-1.7,6.6-2.5,13.4-4.3,19.9
			c-2.6,9.3-9.5,13.9-19,16c-1.4-7.4-6.8-11.1-12.6-14.5c-1.2-0.7-1.8-2.4-2.6-3.6l1.1-0.9c4.9,0.9,9.8,1.6,14.6,2.9
			c5.2,1.4,8-1.1,8.8-5.5c1.9-10.7,3.3-21.6,5-32.8H76.4c-2,24.2-11.6,45-28.1,62.8L46.3,180z"/>
	</g>
</g>
</svg>
