<?xml version="1.0" encoding="utf-8"?>
<!-- Generator: Adobe Illustrator 20.0.0, SVG Export Plug-In . SVG Version: 6.00 Build 0)  -->
<svg version="1.1" id="Layer_1" xmlns="http://www.w3.org/2000/svg" xmlns:xlink="http://www.w3.org/1999/xlink" x="0px" y="0px"
	 viewBox="0 0 180 180" style="enable-background:new 0 0 180 180;" xml:space="preserve">
<title>Asset 27</title>
<g id="Layer_2">
	<g id="Layer_1-2">
		<path d="M96.8,0l18.9,8.9c-9.9,3.3-8.2,11-8.2,18c0,41.4-0.2,82.8,0.1,124.2c0.1,13.1-2.7,23.6-15.9,28.9h-3
			c-1-7.1-6.3-10.2-12.1-12.7c-3-1.3-6.3-2.1-9.4-3.3c-1.2-0.5-2-1.7-3-2.6L65,160c7.1,0.4,14.2,0.8,21.2,1c6.7,0.3,8.1-0.9,8.9-7.7
			c0.2-2,0.3-4,0.3-6c0-39.2,0-78.3,0-117.5c0-10-0.4-20-0.7-30L96.8,0z"/>
	</g>
</g>
</svg>
