<?xml version="1.0" encoding="utf-8"?>
<!-- Generator: Adobe Illustrator 20.0.0, SVG Export Plug-In . SVG Version: 6.00 Build 0)  -->
<svg version="1.1" id="Layer_1" xmlns="http://www.w3.org/2000/svg" xmlns:xlink="http://www.w3.org/1999/xlink" x="0px" y="0px"
	 viewBox="0 0 180 180" style="enable-background:new 0 0 180 180;" xml:space="preserve">
<title>Asset 28</title>
<g id="Layer_2">
	<g id="Layer_1-2">
		<path d="M0,172.3c22.2-8.6,43.8-18.6,61.5-35c11.9-11.1,18-25.9,20.2-41.4c2.9-20.5,3.8-41.3,5.2-62C87.5,24.1,87,14.3,87,3.7
			l22.7,10.8c-0.2,0.6-0.3,1.2-0.6,1.4c-6.9,3.4-7.2,9.3-7.3,16.2c-0.4,24.6-2.4,49-8.5,73.1C88,126.2,76,141.7,57.7,152.9
			c-16.9,10.2-35.1,17.2-53.8,23.2c-1.3,0.2-2.6,0.3-3.9,0.2L0,172.3z"/>
		<path d="M180,167.3c-4.8,8.7-7.1,8.8-13.1,0.9c-14.8-19.4-33.5-34-54.3-46.3c-3.8-2.2-3.7-2.3-2.4-6.4c20.8,8.2,42,15.5,59.8,29.7
			c4,3.2,6.7,8,10,12.1L180,167.3z"/>
	</g>
</g>
</svg>
