<?xml version="1.0" encoding="utf-8"?>
<!-- Generator: Adobe Illustrator 20.0.0, SVG Export Plug-In . SVG Version: 6.00 Build 0)  -->
<svg version="1.1" id="Layer_1" xmlns="http://www.w3.org/2000/svg" xmlns:xlink="http://www.w3.org/1999/xlink" x="0px" y="0px"
	 viewBox="0 0 180 180" style="enable-background:new 0 0 180 180;" xml:space="preserve">
<title>Asset 29</title>
<g id="Layer_2">
	<g id="Layer_1-2">
		<path d="M150,180c-2.9-4.9-5.6-9.8-8.8-14.5c-0.9-1.3-3.1-2.7-4.6-2.6c-21.4,1.4-42.8,3.1-64.2,4.7c-13.8,1-27.4,3-40.8,9
			l-10-17.8c20.7-6.6,32.2-23.1,44.5-38.8c0.9-1.2,1.7-2.5,2.6-3.7c8.2-10.6,12.3-23.7,11.7-37.1c-0.7-24.1,0.2-48.3,0.3-72.4
			C80.6,4.6,80.3,2.3,80,0h3l17.8,9.1c-9.4,3.4-7.5,11-7.5,17.8c0,18.5,0,36.9,0,55.4c0,9.4,0,9.4-7.6,14.9l13.7,9.3
			c-13,2.6-18.7,13-26.6,20.7c-10.9,10.6-21.8,21.2-32.1,31.3h95.6c-8.3-11.8-18.4-20.1-27.9-30.3c1.7-0.1,3.7-0.8,4.9-0.1
			c11.1,6.4,22.5,12.4,32.8,19.9c14.1,10.1,15.3,17,7.9,32.1L150,180z"/>
	</g>
</g>
</svg>
