<?xml version="1.0" encoding="utf-8"?>
<!-- Generator: Adobe Illustrator 20.0.0, SVG Export Plug-In . SVG Version: 6.00 Build 0)  -->
<svg version="1.1" id="Layer_1" xmlns="http://www.w3.org/2000/svg" xmlns:xlink="http://www.w3.org/1999/xlink" x="0px" y="0px"
	 viewBox="0 0 180 180" style="enable-background:new 0 0 180 180;" xml:space="preserve">
<title>Asset 31</title>
<g id="Layer_2">
	<g id="Layer_1-2">
		<path d="M39.3,180l-2-3.8c34.5-30.2,57.4-68.4,76.6-110c-1.4-0.2-2.7-0.4-4.1-0.4c-18.4,0.6-36.9,1.3-55.3,1.9
			c-1.1,0.1-2.2-0.3-3.1-0.9c-2.7-2.4-5.2-5-8.7-8.3c2.8-0.2,4.4-0.3,6-0.3c19.8,0,39.6-0.2,59.4,0.1c4.8,0.1,7.8-1.2,10.1-5.3
			c1.4-2.4,3.3-4.5,5.4-7.3l19.2,18.1c-0.2,0.6-0.3,1.1-0.4,1.1c-9.2,2.8-13.8,10.1-18,18c-12,22.7-26.1,44.2-43.9,62.7
			c-10.3,10.7-22.2,20-33.4,29.9c-1.9,1.6-3.8,3.1-5.7,4.7H39.3z"/>
		<path d="M77.3,0C82.5,3.4,88,6.4,92.9,10.3c5.2,4.1,10.4,8.4,14.4,13.6c6.1,8.1,2.4,21-6.5,25.9c-2.8,1.6-5.1,1-6.8-1.7
			c-0.9-1.4-1.5-2.9-1.9-4.6c-2.9-14.2-9.3-26.8-17.4-38.7c-0.8-1.1-0.3-3.2-0.4-4.8H77.3z"/>
	</g>
</g>
</svg>
