<?xml version="1.0" encoding="utf-8"?>
<!-- Generator: Adobe Illustrator 20.0.0, SVG Export Plug-In . SVG Version: 6.00 Build 0)  -->
<svg version="1.1" id="Layer_1" xmlns="http://www.w3.org/2000/svg" xmlns:xlink="http://www.w3.org/1999/xlink" x="0px" y="0px"
	 viewBox="0 0 180 180" style="enable-background:new 0 0 180 180;" xml:space="preserve">
<title>Asset 32</title>
<g id="Layer_2">
	<g id="Layer_1-2">
		<path d="M180.1,44.9c-14.6,0-29.3,0.1-44-0.1c-3.2,0-4.5,0.8-5.2,4.2c-5.4,25.7-14.2,50.1-28,72.6c-6.6,10.7-16.3,17.9-25.9,25.3
			c-21.2,16.2-45.3,26.3-71.2,32c-0.9,0.3-1.8,0.7-2.6,1.1c-2.5,0.5-3.5-0.5-3-3c27.3-8.1,52.1-20.6,73.9-39.2
			c17.6-15.1,27.5-34.8,35-56.1c3.6-10.3,6-21.1,8.9-31.6c0.3-1.4,0.4-2.8,0.4-4.2c-1-0.3-2-0.4-3-0.5c-29.2,0-58.3,0-87.4,0
			c-3.3,0-6.9-0.1-9.9,1C11.5,48.8,8.5,45,4.8,40h6c44.2,0,88.3-0.1,132.5,0.1c5.1,0,9-1.1,12.1-5.1c2-2.6,4.4-5,6.9-7.7l17.8,16.6
			V44.9z"/>
		<path d="M80.1-0.1c5.5,4.9,11.4,9.6,16.5,14.9c5.3,5.6,4.8,12.7-0.6,18.2c-3.2,3.3-6.3,2.9-7.4-1.5c-2.3-9.9-5.6-19.4-11-28.1
			c-0.5-0.8,0.3-2.3,0.5-3.5L80.1-0.1z"/>
	</g>
</g>
</svg>
