<?xml version="1.0" encoding="utf-8"?>
<!-- Generator: Adobe Illustrator 20.0.0, SVG Export Plug-In . SVG Version: 6.00 Build 0)  -->
<svg version="1.1" id="Layer_1" xmlns="http://www.w3.org/2000/svg" xmlns:xlink="http://www.w3.org/1999/xlink" x="0px" y="0px"
	 viewBox="0 0 180 180" style="enable-background:new 0 0 180 180;" xml:space="preserve">
<title>Asset 33</title>
<g id="Layer_2">
	<g id="Layer_1-2">
		<path d="M106.4,180c-16.8-17.2-37.5-28.5-58.6-39.1c-1.5-0.7-2.5-2.3-3.8-3.4l1.3-2.1l44.1,15.2L119,112c-2.6-0.1-4.3-0.3-6-0.3
			c-16.2,0-32.3,0.1-48.5-0.1c-5.7,0-11.4-0.6-14.4,6.3l-10-10.7c9.2-8.9,9.9-21.5,12.2-33.1c4.2-21.7,7.3-43.6,10.8-65.4
			C63.6,5.9,64,2.9,64.4,0h1l15.4,9.4c-7.6,3.4-6.7,10.3-7.8,16.3C68,52.4,63,79.1,58,106.3h4.1c15.8,0,31.6-0.2,47.4,0.1
			c6.8,0.2,13-0.2,15.9-6.8l14.4,14.4c-19.1,6.9-30.3,24.7-46.2,38.6c12.8,5.4,23.3,11.6,16.7,27.5H106.4z"/>
	</g>
</g>
</svg>
