<?xml version="1.0" encoding="utf-8"?>
<!-- Generator: Adobe Illustrator 20.0.0, SVG Export Plug-In . SVG Version: 6.00 Build 0)  -->
<svg version="1.1" id="Layer_1" xmlns="http://www.w3.org/2000/svg" xmlns:xlink="http://www.w3.org/1999/xlink" x="0px" y="0px"
	 viewBox="0 0 180 180" style="enable-background:new 0 0 180 180;" xml:space="preserve">
<title>Asset 34</title>
<g id="Layer_2">
	<g id="Layer_1-2">
		<path d="M74.2,180c0.1-8.8,0.2-17.6,0.2-26.4c0-22.8,0-45.7,0-68.5v-4.9c-0.8-0.4-1.2-0.8-1.6-0.8C52.1,80,31.3,80.9,10.5,81
			c-2.9,0-5.8-3.2-8.7-4.9l0.6-1.7h71.7V0h2l15.7,9c0,0.3,0.1,0.7-0.1,0.8c-5.8,3-6.1,8.1-6,13.9c0.3,14.8,0.1,29.6,0.1,44.5v5.7
			c1.1,0.2,2.2,0.3,3.2,0.4c19.5,0,39,0.1,58.5-0.1c2.1-0.1,4-1,5.6-2.4c3-2.8,5.6-6.1,8.1-8.7l16.9,16.2H80.7l-0.3,1l12.5,7.5
			c-5.4,2.7-9.1,6-6.2,12.8c10.4,2.7,21.5,5.4,32.4,8.6c8.6,2.6,17,5.6,25.2,9.2c7.1,3.1,11.1,11.4,9.9,18.5c-0.7,4-2.7,5.2-6.3,3.2
			c-2.7-1.7-5.2-3.5-7.6-5.6c-16.2-12.9-35.2-20.4-54.2-29.3c-0.1,2.2-0.3,3.7-0.3,5.1c0.1,20.5,0.2,41,0.2,61.5
			c0,1.5-1.4,3.3-2.7,4.3c-2.3,1.5-4.7,2.8-7.2,4L74.2,180z"/>
	</g>
</g>
</svg>
