<?xml version="1.0" encoding="utf-8"?>
<!-- Generator: Adobe Illustrator 20.0.0, SVG Export Plug-In . SVG Version: 6.00 Build 0)  -->
<svg version="1.1" id="Layer_1" xmlns="http://www.w3.org/2000/svg" xmlns:xlink="http://www.w3.org/1999/xlink" x="0px" y="0px"
	 viewBox="0 0 180 180" style="enable-background:new 0 0 180 180;" xml:space="preserve">
<title>Asset 35</title>
<g id="Layer_2">
	<g id="Layer_1-2">
		<path d="M180,73.1c-4.8,1.7-7.3,4.4-7.2,10.1c0.4,25.3,0.4,50.6,0.5,75.9c0,1.5,0.1,3,0.4,4.4c0.5,2.7-0.5,4.4-3.2,5.2
			c-3.3,1.1-6.5,2.5-10.3,4v-23.4H74.3c0,5.5-0.2,11.1,0.1,16.7c0.2,3.7-0.9,5.9-4.4,7.3c-3,1.2-5.8,3-9.1,4.7V75.6
			c-8.8,9.2-16.9,18.6-26.1,26.9c-9.5,8.6-20,16-30.1,23.8c-1.1,0.8-3.1,0.6-4.7,0.8v-3c10.1-9.8,20.9-19,30.2-29.4
			C53.7,68.5,71.1,38.5,84.5,6.2C85.9,2.8,87.6,1.8,91,2C94.6,2.2,98.3,2,103.5,2L68.8,65.8c3.2,0.8,6.5,2.3,9.9,2.4
			c24.1,0.2,48.3,0,72.4,0.2c5.2,0.1,9-0.9,11.3-5.8c0.8-1.3,1.8-2.6,2.9-3.7L180,70.1V73.1z M159.8,74.6c-1.2-0.1-2-0.2-2.8-0.2
			c-26.1,0-52.3,0.1-78.4-0.1c-3.7,0-4.4,1.5-4.3,4.7c0.1,20,0,40,0.1,59.9c0,1.3,0.2,2.6,0.4,3.8h85.2V74.6z"/>
	</g>
</g>
</svg>
