<?xml version="1.0" encoding="utf-8"?>
<!-- Generator: Adobe Illustrator 20.0.0, SVG Export Plug-In . SVG Version: 6.00 Build 0)  -->
<svg version="1.1" id="Layer_1" xmlns="http://www.w3.org/2000/svg" xmlns:xlink="http://www.w3.org/1999/xlink" x="0px" y="0px"
	 viewBox="0 0 180 180" style="enable-background:new 0 0 180 180;" xml:space="preserve">
<title>Asset 36</title>
<g id="Layer_2">
	<g id="Layer_1-2">
		<path d="M63.3,180c-10.8-3.4-14-11.5-14-22c0.1-45.5,0.1-91.1,0-136.6c0-7.1-0.7-14.2-1-21.4h3L69,8.5c-9.8,4.4-7.6,12.7-7.6,20.3
			c0,42.7,0,85.3,0,128c0,9.1,3.2,12.3,12.2,12.3c8.8,0,17.7-0.3,26.5,0.1c11.3,0.6,14.5-5.5,15.2-14.7c0.5-6.3,0.4-12.6,0.9-18.9
			c0.1-1.5,1.5-2.9,2.3-4.4c0.7,1.4,1.9,2.7,2.1,4.2c0.7,5.8,1.1,11.6,1.5,17.4c0.5,6.6,2.8,11.9,9.6,14.4
			c-3.1,8.4-10.4,10.4-17.4,12.9H63.3z"/>
	</g>
</g>
</svg>
