<?xml version="1.0" encoding="utf-8"?>
<!-- Generator: Adobe Illustrator 20.0.0, SVG Export Plug-In . SVG Version: 6.00 Build 0)  -->
<svg version="1.1" id="Layer_1" xmlns="http://www.w3.org/2000/svg" xmlns:xlink="http://www.w3.org/1999/xlink" x="0px" y="0px"
	 viewBox="0 0 180 180" style="enable-background:new 0 0 180 180;" xml:space="preserve">
<title>Asset 37</title>
<g id="Layer_2">
	<g id="Layer_1-2">
		<path d="M136.1,180c-5.7-1.5-11.5-2.9-17.2-4.5c-37.1-10.3-59.6-35.2-70.7-71.2c-6.4-20.7-9.3-42.1-11.1-63.6
			C36,28.3,35,15.9,33.9,3.5c0-1.2,0-2.3,0.1-3.5h2l17.5,9.7c-8,3.4-6,10-5.7,16.1c1.2,27.6,4,55,13.2,81.3
			c10.8,30.8,34.1,47.9,64.8,57.7c2.5-8.9,4.9-17.1,7.2-25.3c1-3.7,1.9-7.4,3.1-11c0.3-1,1.6-1.6,2.4-2.4c0.5,1,1.4,2.1,1.4,3.1
			c-0.3,6-0.7,11.9-1.2,17.9c-0.9,10.6-0.4,20.9,6.8,29.8c0.6,0.7,0.4,2.1,0.5,3.2L136.1,180z"/>
	</g>
</g>
</svg>
