<?xml version="1.0" encoding="utf-8"?>
<!-- Generator: Adobe Illustrator 20.0.0, SVG Export Plug-In . SVG Version: 6.00 Build 0)  -->
<svg version="1.1" id="Layer_1" xmlns="http://www.w3.org/2000/svg" xmlns:xlink="http://www.w3.org/1999/xlink" x="0px" y="0px"
	 viewBox="0 0 180 180" style="enable-background:new 0 0 180 180;" xml:space="preserve">
<title>Asset 38</title>
<g id="Layer_2">
	<g id="Layer_1-2">
		<path d="M88.1,0l18.2,10.4c-9.3,3.3-7.2,10.5-7.3,16.9c0,6,0,11.9,0,17.6c8.8,3.5,11.7-4.1,16.3-7.5l12.9,13.1H99v6.4
			c0,31.8-0.3,63.6,0.2,95.4c0.2,12.6-3.4,22.1-15.1,27.7h-2c0.2-4.7-3-7.4-6.4-9.4c-4.2-2.5-9-4.3-13.3-6.6
			c-1.4-0.8-2.3-2.4-3.5-3.7l1-1.3c6.2,0.7,12.5,1.4,18.7,2s8.8-1.7,8.8-7.8c0-32.8,0-65.6-0.1-98.4c0-1.1-0.1-2.3-0.2-3.7
			c-8.2,0-16.1-0.5-24,0.1c-6.5,0.5-6.5,1-11.4-5.4h35.4V0H88.1z"/>
	</g>
</g>
</svg>
