<svg xmlns="http://www.w3.org/2000/svg" viewBox="0 0 180 180"><title>Asset 39</title><g id="Layer_2" data-name="Layer 2"><g id="Layer_1-2" data-name="Layer 1"><path d="M83,180c.08-10.64.22-21.29.24-31.93q.05-42.21,0-84.42c0-.82-.11-1.64-.23-3.43-1.54,2-2.65,3.26-3.63,4.65A237.25,237.25,0,0,1,5.58,133.19c-1.49.89-3.71.57-5.58.81v-2c31.83-24.4,58.7-53.11,77.17-89.06C81,35.42,84.29,27.58,87.8,19.87A23,23,0,0,0,88.62,17c-3,0-5.58,0-8.18,0q-31.45.45-62.9.93a8,8,0,0,0-3,.36C8.3,21,5.37,16.82,1.58,12H7.71c45.47,0,90.95-.08,136.42.11,5.2,0,9.3-.93,12.52-5.19A93.15,93.15,0,0,1,163,0h1l16,16v1c-23.49,0-47,0-70.48-.08-3,0-4.75.67-6.13,3.58-4.4,9.29-9.15,18.42-13.9,27.86l14,8.3c-8.55,3.16-7.59,9.82-7.57,16.33.12,30.16-.42,60.33.42,90.47C96.55,172.3,94.52,177,86,178.72c-.71.14-1.32.84-2,1.28Z"/><path d="M112.26,63c1.4,0,3.23-.58,4.15.09,17.51,12.65,35.11,25.18,52.23,38.34,6,4.64,8.13,11.78,5.4,19.33-.81,2.24-2.88,5-4.87,5.5-1.57.38-4.46-2-5.81-3.79-5.21-7.08-9.35-15.06-15.17-21.56-9.86-11-20.67-21.16-31.11-31.65-1.62-1.63-3.37-3.12-5.06-4.68Z"/></g></g></svg>