<?xml version="1.0" encoding="utf-8"?>
<!-- Generator: Adobe Illustrator 20.0.0, SVG Export Plug-In . SVG Version: 6.00 Build 0)  -->
<svg version="1.1" id="Layer_1" xmlns="http://www.w3.org/2000/svg" xmlns:xlink="http://www.w3.org/1999/xlink" x="0px" y="0px"
	 viewBox="0 0 180 180" style="enable-background:new 0 0 180 180;" xml:space="preserve">
<title>Asset 40</title>
<g id="Layer_2">
	<g id="Layer_1-2">
		<path d="M55.2,180l-13.8-24c26.9-13.9,41.7-39,59.4-61.6c-17.8,2.7-36.1,3.1-51.7,15L37.9,89.3c16.3-7,25.2-21,33.5-35.1
			c9.2-15.7,17-32.3,25.2-48.5C97.5,4,97.7,1.9,98.2,0h2L119,14.3c-9.5,4.8-15.4,12.7-21.2,20.8c-12.3,17.2-24.3,34.6-36.4,52
			c-0.3,0.5-0.6,1.1-0.9,1.6c7.6,0,15.1,0.1,22.6,0c6.2,0,12.3-0.3,18.4-1c2.5-0.4,4.7-1.7,6.2-3.7c5.3-8.4,10-17.1,15.2-26.1
			l17.5,14.2c-12,7.5-19.9,18.2-28.6,28.3c-15.3,18-31,35.7-46.6,53.5c-0.6,0.7-1.3,1.5-2.8,3.3c5.1-0.6,9-1,13-1.6
			c20.9-3.2,41.7-6.3,62.6-9.7c3.7-0.6,4.4,0.8,4.1,4.2c-10.5,2.6-21.1,5.1-31.6,8c-16.7,4.6-33.3,9.2-48.4,18
			c-1.7,1.2-3.3,2.5-4.9,4L55.2,180z"/>
	</g>
</g>
</svg>
