<?xml version="1.0" encoding="utf-8"?>
<!-- Generator: Adobe Illustrator 20.0.0, SVG Export Plug-In . SVG Version: 6.00 Build 0)  -->
<svg version="1.1" id="Layer_1" xmlns="http://www.w3.org/2000/svg" xmlns:xlink="http://www.w3.org/1999/xlink" x="0px" y="0px"
	 viewBox="0 0 180 180" style="enable-background:new 0 0 180 180;" xml:space="preserve">
<title>Asset 41</title>
<g id="Layer_2">
	<g id="Layer_1-2">
		<path d="M180,154.3c-2.2,0.1-4.3,0.3-6.5,0.3c-42.9,0-85.9-0.2-128.8,0.1c-10.2,0.1-20.4,2-30.7,2.9c-1.7,0.1-3.3-0.4-4.7-1.4
			c-3.3-2.8-6.3-5.9-9.4-8.9v-1c32.1,0,64.3,0,96.4,0.1c2.5,0,3.9-0.6,4.6-3.2c10.2-36.6,20.4-73.1,30.6-109.7
			c0.9-3.3,1-6.9,1.7-11.2l26.5,17.6c-11.1,8.3-15.7,20.3-20.6,32c-9.9,23.3-19.5,46.9-29.2,70.3c-0.4,1.1-0.8,2.1-1.4,4
			c10.3,0,20.2,0.1,30.1-0.1c1.2,0,2.5-1.4,3.5-2.5c4.9-5,9.6-10,14.7-15.3l23.3,24.9V154.3z"/>
		<path d="M59.9,23.7c11.5,15.1,23.1,29.9,31.2,47c4.1,8.6,6.6,17.7,3.6,27c-1.7,4.5-4.4,8.4-8,11.5c-4.3,3.9-8.1,2.4-9.6-3.3
			c-0.9-3.9-1.5-7.8-1.8-11.8c-2.3-22.3-9.1-43.5-18-63.9C55.8,27.1,55.7,25,59.9,23.7z"/>
		<path d="M23.1,35.2C33.3,51.7,44,67.8,50.9,85.9c3.9,10.4,4.2,20.8-2.8,30.3c-1.1,1.5-2.3,2.8-3.7,4c-4.5,3.6-8.4,2.8-10-2.7
			c-1.4-4.9-2.3-10-2.6-15.1c-1.3-20.8-6.2-41-12-60.9C18.9,38.2,19.2,36.4,23.1,35.2z"/>
	</g>
</g>
</svg>
