<?xml version="1.0" encoding="utf-8"?>
<!-- Generator: Adobe Illustrator 20.0.0, SVG Export Plug-In . SVG Version: 6.00 Build 0)  -->
<svg version="1.1" id="Layer_1" xmlns="http://www.w3.org/2000/svg" xmlns:xlink="http://www.w3.org/1999/xlink" x="0px" y="0px"
	 viewBox="0 0 180 180" style="enable-background:new 0 0 180 180;" xml:space="preserve">
<title>Asset 44</title>
<g id="Layer_2">
	<g id="Layer_1-2">
		<path d="M0,73.3L49.5,73c2,0,3.9,0,6.3,0V40.7L75,48.6c-11,5.9-5.6,15.6-7.4,24.4H79c10.5,0,21-0.1,31.5,0.1c3.3,0,4.3-1,4.3-4.3
			c-0.2-9.1-0.1-18.3-0.1-28l18.4,7.9c-9.8,5-6.2,13.3-6.9,20.5c-0.2,2.8,0.8,3.9,3.7,3.8c6.2-0.1,12.3,0.1,18.5-0.2
			c1.9-0.2,3.7-1,5.1-2.3c3.2-3.1,6-6.6,10.1-11.2l16.3,18v1h-53.7c0,7.3-0.2,14.4,0,21.5c0.3,10.3,1,20.6,1.3,30.9
			c-0.2,1.6-1.1,3-2.5,3.8c-3.4,1.6-7.1,2.6-10.8,3.9V78.5H68c-2.8,8.1-4.8,16.2-8.5,23.6c-8.8,17.3-24.1,27-41.9,33.2
			c-5.7,1.9-11.7,2.8-17.6,4.1c0-0.7,0-1.3,0-2c10.2-5.5,21-10.2,30.4-16.8c14.2-10,22.2-24.4,24.7-41.9c-12.6,0-24.9-0.8-37.1,0.3
			c-7,0.6-13.2,1.6-18-4.6L0,73.3z"/>
	</g>
</g>
</svg>
