<?xml version="1.0" encoding="utf-8"?>
<!-- Generator: Adobe Illustrator 20.0.0, SVG Export Plug-In . SVG Version: 6.00 Build 0)  -->
<svg version="1.1" id="Layer_1" xmlns="http://www.w3.org/2000/svg" xmlns:xlink="http://www.w3.org/1999/xlink" x="0px" y="0px"
	 viewBox="0 0 180 180" style="enable-background:new 0 0 180 180;" xml:space="preserve">
<title>Asset 45</title>
<g id="Layer_2">
	<g id="Layer_1-2">
		<path d="M180,145c-6.6,1.7-11.9,6.5-14.4,12.8c-30-4.8-57.6-14.1-79.2-36.7c-24.2,19.6-52.1,31.1-82,38.2C3,159.7,1.5,159.8,0,160
			v-4c10.9-4,22-7.4,32.6-12c17-7.4,32.7-17.5,46.5-29.9C73.5,103.3,67.7,92.8,62.7,82c-3.7-8-6.5-16.3-9.4-24.6
			c-0.6-1.7-0.1-3.8,0-5.7c1.3,1.3,3.1,2.4,3.8,4c7.6,16.9,16.1,33.2,27.5,47.9c0.5,0.7,1.1,1.3,1.9,2.3
			C99.7,88.7,106.5,69,112.3,48l19,11.6c-9.1,1.9-10.4,9.1-13.7,14.8c-7.6,13.4-15.7,26.5-23.9,40.3c10.2,9.5,23.4,16.7,38,21.3
			c15.7,5,31.9,6.1,48.2,6L180,145z"/>
		<path d="M55.4,20l14.3,12.8c-10.8,1.9-15.9,10.5-23.5,15.6C33.8,56.7,21.4,65,8.9,73.2c-2,1.1-4.1,2-6.2,2.8l-1.3-1.1
			c1.1-1.3,1.9-2.9,3.2-3.8c15.7-11,29.8-24,41.9-38.9C49.5,28.4,52.2,24.4,55.4,20z"/>
		<path d="M110.4,21.7c13.7,7.6,28,15,41.7,23.3c9.3,5.6,11.2,13.2,7.1,20.7c-2.6,4.7-5.8,5.2-8.6,0.8c-10.1-16.2-24.7-27.7-40-38.5
			C108.5,26.4,106.2,25,110.4,21.7z"/>
	</g>
</g>
</svg>
