<?xml version="1.0" encoding="utf-8"?>
<!-- Generator: Adobe Illustrator 20.0.0, SVG Export Plug-In . SVG Version: 6.00 Build 0)  -->
<svg version="1.1" id="Layer_1" xmlns="http://www.w3.org/2000/svg" xmlns:xlink="http://www.w3.org/1999/xlink" x="0px" y="0px"
	 viewBox="0 0 180 180" style="enable-background:new 0 0 180 180;" xml:space="preserve">
<title>Asset 46</title>
<g id="Layer_2">
	<g id="Layer_1-2">
		<path d="M156.9,0h2l15.1,14.5c-9.1,2.9-8.4,9.8-8.3,16.8c0.4,44.1,0.7,88.2,0.9,132.3c0,1.5-0.7,3.8-1.8,4.5
			c-4,2.3-8.3,4-13.4,6.4v-22.3H21.7c0,2.4-0.3,4.6,0,6.7c1.8,10.3-1,17.7-12.2,20.1c-0.6,0.1-1.1,0.7-1.6,1.1h-2V0.5
			c3.5,2.2,6.3,3.6,8.8,5.5c5,3.8,10.5,4.9,16.7,4.9c35.7-0.2,71.3-0.5,106.9,0.1c8.9,0.2,14.5-2.4,18.2-10
			C156.7,0.7,156.8,0.3,156.9,0z M151.4,17.3H22v127.5h129.3V17.3z"/>
	</g>
</g>
</svg>
