<?xml version="1.0" encoding="utf-8"?>
<!-- Generator: Adobe Illustrator 20.0.0, SVG Export Plug-In . SVG Version: 6.00 Build 0)  -->
<svg version="1.1" id="Layer_1" xmlns="http://www.w3.org/2000/svg" xmlns:xlink="http://www.w3.org/1999/xlink" x="0px" y="0px"
	 viewBox="0 0 180 180" style="enable-background:new 0 0 180 180;" xml:space="preserve">
<title>Asset 47</title>
<g id="Layer_2">
	<g id="Layer_1-2">
		<path d="M0,160.5h54.6l10.7-134c-12,0-23.5-0.9-34.8,0.4c-6.2,0.7-9.7-0.9-13.3-6.3h5.5c36.1,0,72.3-0.1,108.4,0.1
			c5.4,0,9.7-1,12.9-5.4c0.8-0.9,1.7-1.8,2.7-2.5l13.1,11.5c-9,2.6-8.7,9.3-9.2,16.2c-2.4,35.5-5.1,71-7.6,106.5
			c-0.3,4.3-0.4,8.6-0.7,13.3c4.1,1.1,7.9,1.6,11.1-2.4c2.7-3.3,5.8-6.3,8.7-9.5l17.8,16.3v2c-2-0.1-4-0.2-6-0.2
			c-46.8,0-93.6,0-140.5,0c-5.3,0-10.8-0.5-16,0.3c-6.5,1.1-12.7,1.9-17.5-4.1V160.5z M138.6,25.8H77.4L66.7,160.5h62.8L138.6,25.8z
			"/>
	</g>
</g>
</svg>
