<?xml version="1.0" encoding="utf-8"?>
<!-- Generator: Adobe Illustrator 20.0.0, SVG Export Plug-In . SVG Version: 6.00 Build 0)  -->
<svg version="1.1" id="Layer_1" xmlns="http://www.w3.org/2000/svg" xmlns:xlink="http://www.w3.org/1999/xlink" x="0px" y="0px"
	 viewBox="0 0 180 180" style="enable-background:new 0 0 180 180;" xml:space="preserve">
<title>Asset 48</title>
<g id="Layer_2">
	<g id="Layer_1-2">
		<path d="M5.5,180c-2.5-2.1-1.1-3.8,0.5-5.6c12.6-14,23.7-29.1,27.6-47.9c2.9-14.1,5.3-28.5,5.9-42.8c0.9-24.9,0.2-49.9,0.1-74.9
			c0-2.4,0-4.9,0-7.8c0.8,0.2,1.5,0.5,2.2,0.9c7.8,6.8,17,7.5,27,7.3C94.9,8.7,121.1,9,147.2,9c8.4,0,9.1-0.5,12.2-9h2l14.5,11
			c-8.3,2.6-6.7,9.1-6.7,15c0,14.1,0.1,28.3,0.4,42.4c0.1,2.7-0.6,3.9-3,4.8c-3.2,1.2-6.3,2.7-9.9,4.2c-0.2-1.8-0.4-3.1-0.4-4.3
			c-0.1-8.8-0.1-8.8-8.7-8.8h-94c-0.4,8.8-0.9,17.1-1.1,25.4c-1,35.4-14.1,64.9-42.1,87.1c-1.1,1-2,2-2.9,3.2H5.5z M155.8,58.9V14.3
			H53.6v44.6H155.8z"/>
	</g>
</g>
</svg>
