<?xml version="1.0" encoding="utf-8"?>
<!-- Generator: Adobe Illustrator 20.0.0, SVG Export Plug-In . SVG Version: 6.00 Build 0)  -->
<svg version="1.1" id="Layer_1" xmlns="http://www.w3.org/2000/svg" xmlns:xlink="http://www.w3.org/1999/xlink" x="0px" y="0px"
	 viewBox="0 0 180 180" style="enable-background:new 0 0 180 180;" xml:space="preserve">
<title>Asset 49</title>
<g id="Layer_2">
	<g id="Layer_1-2">
		<path d="M52.8,180V0h2c4.8,5,9.7,8.9,17.4,8.4c8-0.6,16-0.6,23.9,0c7.4,0.6,13-0.8,15.6-8.4h1l14.4,10.6c-9,4.3-7.4,12.2-7.4,19.5
			c0,28.7,0,57.3,0,85.9c0,13.7-5.1,20.5-18.7,24.6c-2-6.3-7.2-9.3-12.8-11.7c-3.8-1.6-7.8-2.8-11.6-4.4c-1.1-0.5-1.8-2-2.6-3
			c1.2-0.5,2.5-1.4,3.7-1.3c5.5,0.3,10.9,0.9,16.4,1.5c12.6,1.3,14.3-0.2,14.3-12.7c0-29.5,0-58.9,0-88.4v-6.3h-43v6.1
			c0,48.6-0.1,97.2,0.2,145.9c0,6-1.4,9.7-7.2,11.5c-1.3,0.4-2.5,1.5-3.7,2.3H52.8z"/>
	</g>
</g>
</svg>
