<?xml version="1.0" encoding="utf-8"?>
<!-- Generator: Adobe Illustrator 20.0.0, SVG Export Plug-In . SVG Version: 6.00 Build 0)  -->
<svg version="1.1" id="Layer_1" xmlns="http://www.w3.org/2000/svg" xmlns:xlink="http://www.w3.org/1999/xlink" x="0px" y="0px"
	 viewBox="0 0 180 180" style="enable-background:new 0 0 180 180;" xml:space="preserve">
<title>Asset 50</title>
<g id="Layer_2">
	<g id="Layer_1-2">
		<path d="M0,169.5c12.3-14.4,19.6-32.4,21-51.3c1.4-18.3,1.8-36.8,2.7-55.3c-0.3,0,0.3-0.2,0.6,0.1c8.4,6.3,18,6.6,28,6.4
			c16.8-0.3,33.7,0,50.5-0.2c1.9,0,4.8-1.3,5.4-2.7c5.6-12.2,10.9-24.5,16.4-37.4l16.9,8.8c-13.3,7.1-18.7,20.7-28.6,30.2l0.7,1.2
			c12.2,0,24.5,0.1,36.8-0.1c1.5,0,3.1-1.8,4.3-3c2.8-2.8,5.4-5.8,9.3-10.1L180,73.5v1H34.9c0,8.6,0.2,17,0,25.4
			c-0.6,27.5-9.9,51.3-30,70.5C3.2,172,2,172.8,0,171.5V169.5z"/>
		<path d="M180,25.5c-2.2,0.1-4.3,0.3-6.5,0.3c-47,0-93.9,0-140.9,0c-4,0-8.2-0.2-11.9,1c-6.4,2.1-10-0.5-13.5-6.2h5.6
			c43.5,0,87-0.1,130.4,0.1c5.1,0,8.9-1.1,12.1-5.2c2-2.6,4.4-5,6.9-7.7L180,24.5V25.5z"/>
		<path d="M56.7,28.7c6.7,6,13.8,11.7,20.1,18.2c4.8,5,4.5,10.8,0.3,16.2c-1.2,1.5-3.4,3.3-5,3.2c-1.6-0.2-3.2-2.5-4-4.3
			c-3.3-7.5-6.2-15.2-9.5-22.8c-0.8-2-2.5-3.5-3.4-5.5c-0.6-1.2-0.4-2.7-0.6-4L56.7,28.7z"/>
	</g>
</g>
</svg>
