<?xml version="1.0" encoding="utf-8"?>
<!-- Generator: Adobe Illustrator 20.0.0, SVG Export Plug-In . SVG Version: 6.00 Build 0)  -->
<svg version="1.1" id="Layer_1" xmlns="http://www.w3.org/2000/svg" xmlns:xlink="http://www.w3.org/1999/xlink" x="0px" y="0px"
	 viewBox="0 0 180 180" style="enable-background:new 0 0 180 180;" xml:space="preserve">
<title>Asset 51</title>
<g id="Layer_2">
	<g id="Layer_1-2">
		<path d="M87,0l13.3,10.2l-11.3,7.7l0.5,1.3h23.7c2,0,4,0,6,0c6.8-0.1,14.2,1.7,17.1-8.1l15,13.4c-13.1,2.4-21.4,11.2-30.4,19
			c-1.5,1.3-2.3,3.6-2.8,5.6c-1.6,6.2-2.7,12.6-4.4,18.9c-1.5,5.3-3.5,10.5-5.4,16.1c5.4,7.4,12.2,15.4,17.3,24.2
			c8.6,14.7,11.2,30.8,7,47.6c-2.8,10.9-9.3,18.6-20,22.5c-1.2,0.4-2.4,1.1-3.6,1.7h-3c0-5.2-3.5-8.2-7.3-10.5s-8.2-3.5-12.2-5.4
			c-1.2-0.6-2-1.8-3-2.7l0.9-1.2c7.2,0.6,14.5,1.2,21.7,1.8c12.1,1.1,14.6-4.2,15.8-13.9c1.9-15.6-0.7-30.4-9-44.1
			c-4.7-7.8-9-15.9-13.2-24c-0.8-1.7-0.9-3.6-0.3-5.4c4.2-9.6,8.1-19.4,13.4-28.4c4.3-7.4,10.3-13.8,16-21.1
			c-1.2-0.2-2.4-0.4-3.7-0.5c-12.8,0-25.6-0.1-38.5,0.1c-2.3,0-4.5,0.8-6.3,2.1C65.8,39,51.2,50.8,33.8,58.4
			c-1.6,0.7-3.4,0.8-5.1,0.3C50.6,41.5,71.7,24.1,86,0H87z"/>
	</g>
</g>
</svg>
