<?xml version="1.0" encoding="utf-8"?>
<!-- Generator: Adobe Illustrator 20.0.0, SVG Export Plug-In . SVG Version: 6.00 Build 0)  -->
<svg version="1.1" id="Layer_1" xmlns="http://www.w3.org/2000/svg" xmlns:xlink="http://www.w3.org/1999/xlink" x="0px" y="0px"
	 viewBox="0 0 180 180" style="enable-background:new 0 0 180 180;" xml:space="preserve">
<title>Asset 52</title>
<g id="Layer_2">
	<g id="Layer_1-2">
		<path d="M92.1,180V74.9h-4.4c-17.1,0-34.3,0-51.4,0c-6.7,0-14.9-8.2-14.9-14.8c0-14.9,0-29.9,0-45.3c2.8,2,5.7,4.4,8.9,6.3
			c1.6,1,3.7,2,5.4,1.7c26.1-4.1,52.1-8.5,76.6-18.8c2.7-1.1,5.3-2.7,7.9-4.1h2l10.8,15L33.3,28.2V70h5.2c29.3,0,58.7-0.1,88,0.1
			c4.9,0,8.7-1,11.6-4.9c1.6-2.1,3.4-4.1,4.8-5.9l15.6,15.5H104c0,2,0,3.5,0,4.9c0.1,27.3-0.5,54.7,0.8,81.9
			c0.4,9.7-2.1,15.1-10.7,18.3L92.1,180z"/>
	</g>
</g>
</svg>
