<?xml version="1.0" encoding="utf-8"?>
<!-- Generator: Adobe Illustrator 20.0.0, SVG Export Plug-In . SVG Version: 6.00 Build 0)  -->
<svg version="1.1" id="Layer_1" xmlns="http://www.w3.org/2000/svg" xmlns:xlink="http://www.w3.org/1999/xlink" x="0px" y="0px"
	 viewBox="0 0 180 180" style="enable-background:new 0 0 180 180;" xml:space="preserve">
<title>Asset 53</title>
<g id="Layer_2">
	<g id="Layer_1-2">
		<path d="M0,173.6c1.5-0.5,3-1,4.5-1.7c17.5-9.5,32.3-22.2,45.2-37.3c1.5-1.7,2.5-3,1-5.6c-9-16-15.2-33.1-17.8-50.6L6.3,121.7
			c-4.8-1.2-5-2.8-3.3-5.6c20.5-33.3,30-70.3,36.2-108.4c0.2-1.1,0.6-2.2,1-3.7l16.7,7.2L42.6,46.8c12,0,22.4,0.2,32.9-0.2
			c1.8-0.1,3.8-2.4,5.4-4c1.3-1.5,2.4-3.1,3.4-4.8l14.1,14.6c-8.3,2.3-9.3,9.9-11.4,16.8c-6.2,20.5-11.6,41.3-21.2,60.5
			c-1.5,3-0.1,4.3,1.7,5.9c11.2,9.7,24.6,15.2,38.9,18c23,4.5,46.3,4.2,69.6,3.9c1.3,0,2.6,0.1,4,0.1v3c-5.8,1.2-10.7,4.1-13.3,9.4
			c-1.5,3.1-3.2,3.6-6.1,3.3c-13.1-1.3-26.2-2.2-39.2-3.9c-18.7-2.4-36.5-7.7-51.8-19.2c-4.1-3-7.9-6.5-11.8-9.7
			c-22.6,21.1-32.9,28-52.7,35.3c-1.5,0.6-3.5-0.1-5.2-0.2C0,174.9,0,174.2,0,173.6z M77.2,52.3c-9.6,0-18.6-0.1-27.5,0
			c-10,0.2-7.3-1.8-10.6,7.9c-1.4,4.3-3.7,9.4-2.5,13.3c3.5,11.9,8.1,23.4,12.8,34.9c1.8,4.4,4.8,8.4,7.7,13.4
			C67.4,99.1,73,76.3,77.2,52.3z"/>
	</g>
</g>
</svg>
