<?xml version="1.0" encoding="utf-8"?>
<!-- Generator: Adobe Illustrator 20.0.0, SVG Export Plug-In . SVG Version: 6.00 Build 0)  -->
<svg version="1.1" id="Layer_1" xmlns="http://www.w3.org/2000/svg" xmlns:xlink="http://www.w3.org/1999/xlink" x="0px" y="0px"
	 viewBox="0 0 180 180" style="enable-background:new 0 0 180 180;" xml:space="preserve">
<title>Asset 54</title>
<g id="Layer_2">
	<g id="Layer_1-2">
		<path d="M4.2,180c-2.2-2.3-0.2-3.7,1-5.5c7.4-11.4,15.6-22.4,21.7-34.5c7.8-15.6,8.7-33.1,9.1-50.2c0.6-24.8,0.2-49.6,0.2-74.9
			c3.1,2.3,6.2,4.8,9.6,7.1c1.3,0.9,3,1.7,4.4,1.5C76.3,19.4,102.3,15,127,5c3.5-1.4,6.8-3.3,10.2-5h2l11.1,15.3L48.5,28.8v42.5h6
			c29.8,0,59.6-0.1,89.4,0.1c5.1,0,9.1-1.1,12-5.2c1.5-2.2,3.1-4.3,4.2-5.9l16.6,16.4H48.7c-0.5,8.2-1.1,15.8-1.4,23.4
			c-1.2,32.2-15.8,57.5-39.9,77.9c-0.8,0.6-1.4,1.4-2.2,2H4.2z"/>
	</g>
</g>
</svg>
