<?xml version="1.0" encoding="utf-8"?>
<!-- Generator: Adobe Illustrator 20.0.0, SVG Export Plug-In . SVG Version: 6.00 Build 0)  -->
<svg version="1.1" id="Layer_1" xmlns="http://www.w3.org/2000/svg" xmlns:xlink="http://www.w3.org/1999/xlink" x="0px" y="0px"
	 viewBox="0 0 180 180" style="enable-background:new 0 0 180 180;" xml:space="preserve">
<title>Asset 55</title>
<g id="Layer_2">
	<g id="Layer_1-2">
		<path d="M86,0l19.7,11.9c-11.5,7.4-13,20.7-19.6,32.3c13,0,24.8,0.1,36.6-0.1c1.1,0,2.5-1.3,3.3-2.4c1.9-2.5,3.5-5.2,5.5-8.4
			L148.1,46c-0.1,0.5-0.1,1-0.2,1.1c-6.2,3.9-8.2,10.2-10.2,16.9c-6.2,21.7-14.2,42.6-27.1,61.3c-16.3,23.7-39.2,39-64.9,50.7
			c-2.7,1.2-5.2,2.7-7.8,4h-3c-1.2-3.3,1.2-4.2,3.4-5.5C58.4,163,76.5,149,91,130.7c16.5-20.8,25.3-45,31.9-70.2
			c0.8-3,1.4-6.1,2.2-9.8c-11.1,0-21.7,0.7-32.3-0.2c-8.2-0.7-12.1,2.6-15.5,9.5C67.6,79.9,55.2,97.9,38,112.3
			c-1.9,1.5-3.7,3.9-6.2,0.5c4.8-6.7,9.9-13.2,14.3-20.1C64,64.9,75.6,34.4,83.2,2.4C83.4,1.6,83.7,0.8,84,0L86,0z"/>
	</g>
</g>
</svg>
