<?xml version="1.0" encoding="utf-8"?>
<!-- Generator: Adobe Illustrator 20.0.0, SVG Export Plug-In . SVG Version: 6.00 Build 0)  -->
<svg version="1.1" id="Layer_1" xmlns="http://www.w3.org/2000/svg" xmlns:xlink="http://www.w3.org/1999/xlink" x="0px" y="0px"
	 viewBox="0 0 180 180" style="enable-background:new 0 0 180 180;" xml:space="preserve">
<title>Asset 56</title>
<g id="Layer_2">
	<g id="Layer_1-2">
		<path d="M25.9,180l-3.7-3c5.8-8.5,11.6-16.8,17.2-25.4C69.2,106,86.6,55.4,97.9,2.5c0.1-0.8,0.1-1.7,0-2.5h2l29.6,16.4
			c1.7,1,3.5,2,6,3.4c-3.9,1.8-7.3,3.3-10.6,5c-1.4,0.7-3.2,1.6-3.8,2.9c-6.5,16-12.7,32-19,47.9c10.2,6.4,20.3,12.2,29.9,18.8
			c6.4,4.3,12.3,9.2,17.7,14.6c11.5,11.5,10.5,32.9-1.6,43.8c-3.1,2.8-6.2,2.8-8.5-0.6c-2-2.9-3.6-6-4.7-9.3
			c-7.5-21.7-20.6-39.8-35.1-57.1c-0.3-0.3-0.6-0.5-1-0.6c-8.8,14.2-17.3,28.5-26.5,42.3c-12.1,18.4-26.4,35.2-42.6,50.1
			c-0.7,0.7-1.3,1.5-1.8,2.3H25.9z"/>
	</g>
</g>
</svg>
