<?xml version="1.0" encoding="utf-8"?>
<!-- Generator: Adobe Illustrator 20.0.0, SVG Export Plug-In . SVG Version: 6.00 Build 0)  -->
<svg version="1.1" id="Layer_1" xmlns="http://www.w3.org/2000/svg" xmlns:xlink="http://www.w3.org/1999/xlink" x="0px" y="0px"
	 viewBox="0 0 180 180" style="enable-background:new 0 0 180 180;" xml:space="preserve">
<title>Asset 57</title>
<g id="Layer_2">
	<g id="Layer_1-2">
		<path d="M180,154.8c-7.6,1.1-14.9,2.5-18.9,11.8c-7.8-6.6-15.4-12.7-22.5-19.3c-18.8-17.3-33-39.2-41.1-63.5
			c-1.1-3.3-2.7-4.2-6-4.2c-22.3,0.2-44.7,0.1-67,0.1c-2.3-0.1-4.7,0.1-7,0.6c-6.8,1.8-13,1.7-17.5-4.6v-1c32.5,0,65,0,97.4,0.1
			c2.6,0.2,5.1-1.1,6.6-3.3c13.3-17.8,24.7-36.6,32.9-58.1l18.9,14.7c-10.7,1.5-14.4,9.9-20,16.1c-9,9.8-17.8,19.8-27.1,30.1
			c1.6,0.1,2.9,0.3,4.3,0.3c10.3,0,20.7-0.2,31,0.1c3.7,0.3,7.2-1.2,9.6-4c2.3-2.6,5.1-4.8,7.3-6.9l15.9,15.6h-75.4
			c1.5,3.4,2.6,6.2,3.9,8.7c15.5,28.6,38,49.3,68.5,61c2,0.6,4.1,1.1,6.2,1.4V154.8z"/>
	</g>
</g>
</svg>
