<?xml version="1.0" encoding="utf-8"?>
<!-- Generator: Adobe Illustrator 20.0.0, SVG Export Plug-In . SVG Version: 6.00 Build 0)  -->
<svg version="1.1" id="Layer_1" xmlns="http://www.w3.org/2000/svg" xmlns:xlink="http://www.w3.org/1999/xlink" x="0px" y="0px"
	 viewBox="0 0 180 180" style="enable-background:new 0 0 180 180;" xml:space="preserve">
<title>Asset 58</title>
<g id="Layer_2">
	<g id="Layer_1-2">
		<path d="M165.2,0l14,15.5H91.5L91,16.6l7.4,5c-10.1,8.5-15.3,20-21.9,31.8c2.5,0.1,4.3,0.3,6,0.3c14.3,0,28.6-0.2,43,0.1
			c5.2,0.1,9.4-0.9,12.6-5.2c0.8-0.9,1.7-1.8,2.6-2.5l11.1,11.6c-7.3,2.6-5.5,9.6-5.5,15.9c0,27.1,0,54.3,0,81.4
			c0,5.3,0.2,10.6,0.8,15.9c0.4,3.6-0.2,6-4.4,6.7c-2.2,0.4-4.3,1.6-6.4,2.4h-3c0.1-8.5,0.2-17,0.2-25.5c0-29.6,0-59.3,0-88.9v-6.5
			H46l0.5-5.5h24.7l9.1-37.4c-2.3-0.2-3.6-0.5-4.8-0.5c-17.2,0-34.3,0-51.5,0.2c-3.5,0-7.2,0-10.4,1.1c-6.7,2.4-9-2.2-12.9-6.8h6.2
			c45.6,0,91.3-0.1,136.9,0.2c6.7,0,12-1.2,15.9-6.7c1-1.3,2.2-2.5,3.3-3.7H165.2z"/>
	</g>
</g>
</svg>
