<?xml version="1.0" encoding="utf-8"?>
<!-- Generator: Adobe Illustrator 20.0.0, SVG Export Plug-In . SVG Version: 6.00 Build 0)  -->
<svg version="1.1" id="Layer_1" xmlns="http://www.w3.org/2000/svg" xmlns:xlink="http://www.w3.org/1999/xlink" x="0px" y="0px"
	 viewBox="0 0 180 180" style="enable-background:new 0 0 180 180;" xml:space="preserve">
<title>Asset 59</title>
<g id="Layer_2">
	<g id="Layer_1-2">
		<path d="M180,154.1c-2.1,0.1-4.3,0.3-6.5,0.3c-48.7,0-97.5,0-146.2,0.1c-5.6,0-11.2,1.2-16.8,1.4c-2.1,0.1-4.5-1-6.4-2.1
			c-1.5-0.8-2.7-2.4-4-3.6v-1c50.1,0,100.1,0,150.2,0c2-0.2,4-1,5.5-2.4c3.1-2.9,5.9-6.2,8.2-8.6l16.2,15.1V154.1z"/>
		<path d="M13.1,35.2h5.4c39.1,0,78.2-0.1,117.4,0.1c4.8,0,8.3-1.1,11.2-4.8c1.9-2.5,4-4.8,5.2-6.2l16.9,14.6l-0.5,1.2h-5.2
			c-41.4,0-82.9-0.1-124.4,0.1c-5.8,0-11.6,1.7-17.3,1.4c-3.2-0.2-6.3-2.8-9.4-4.3L13.1,35.2z"/>
		<path d="M44.5,56.1c1.6,0.5,3.5,0.5,4.1,1.3C59,74.2,71.1,90,75.4,109.9c1.5,6.4,0.2,13.2-3.7,18.5c-1.2,1.7-3.8,3.5-5.5,3.3
			c-1.4-0.2-3.1-3.2-3.5-5.2c-1.9-9.6-2.8-19.4-5.2-28.8C53.8,84.1,49.1,70.8,44.5,56.1z"/>
	</g>
</g>
</svg>
