<?xml version="1.0" encoding="utf-8"?>
<!-- Generator: Adobe Illustrator 20.0.0, SVG Export Plug-In . SVG Version: 6.00 Build 0)  -->
<svg version="1.1" id="Layer_1" xmlns="http://www.w3.org/2000/svg" xmlns:xlink="http://www.w3.org/1999/xlink" x="0px" y="0px"
	 viewBox="0 0 180 180" style="enable-background:new 0 0 180 180;" xml:space="preserve">
<title>Asset 60</title>
<g id="Layer_2">
	<g id="Layer_1-2">
		<path d="M90.3,0L107,8.4c-0.1,0.3,0,0.7-0.2,0.8c-6.1,3.2-6.7,8.6-6.3,14.7c0.4,7.3,0.1,14.6,0.1,22.3c13.4,0,26.2,0.1,39-0.2
			c1.6,0,3.3-2,4.6-3.3c2.3-2.4,4.4-5,7-7.9L166,51c-2.6,0.1-4.3,0.3-6,0.3c-18.2,0-36.3,0.1-54.4-0.1c-4.1,0-5,1.3-5,5.1
			c0.3,36.9,0.4,73.9,0.9,110.8c0.1,5.2-1.2,8.4-6.2,9.9c-1.8,0.6-3.2,2-4.9,3h-2c0.1-13,0.2-26,0.2-38.9c0-28.1,0-56.3,0-84.4
			c0-1.5,0-3,0-5c-2.1-0.1-3.8-0.3-5.6-0.3c-10.2,0-20.3,0.2-30.5-0.1c-3.8-0.1-5.8,1.2-8,4.3C36,67.7,27,79.7,18,91.6
			c-0.8,1-2.6,1.2-3.9,1.7c0.2-1.4,0.1-3.1,0.8-4.3c14.5-22.5,25-47.4,31-73.6c0.1-0.4,0.5-0.8,1-1.6l18.5,9.3
			C55,27.8,54.2,38,48.9,46h39.4V0H90.3z"/>
	</g>
</g>
</svg>
