<?xml version="1.0" encoding="utf-8"?>
<!-- Generator: Adobe Illustrator 20.0.0, SVG Export Plug-In . SVG Version: 6.00 Build 0)  -->
<svg version="1.1" id="Layer_1" xmlns="http://www.w3.org/2000/svg" xmlns:xlink="http://www.w3.org/1999/xlink" x="0px" y="0px"
	 viewBox="0 0 180 180" style="enable-background:new 0 0 180 180;" xml:space="preserve">
<title>Asset 61</title>
<g id="Layer_2">
	<g id="Layer_1-2">
		<path d="M122.6,0l14,9.1l-32.3,34.6c8.8,0,16.3-0.6,23.6,0.2c9.6,1,17.2-1.3,22.8-9.4c0.8-0.9,1.6-1.6,2.5-2.3l14.9,16.6H96.9
			c-0.2,1.6-0.4,2.7-0.4,3.8c0,37.5,0,75,0,112.4c0,3.5,1.3,7.6-0.2,10.2c-1.3,2.2-5.8,2.6-8.8,3.9c-0.4,0.2-0.6,0.6-0.9,1h-3V48.8
			c-5.1,0-10.7-0.2-16.3,0c-15.8,0.6-31.5,1.5-47.3,1.7c-2.7,0-5.4-3.3-8.1-5.2l0.5-1.3c1.7-0.1,3.5-0.2,5.2-0.2
			c25.5,0,51-0.1,76.4,0.1c3.6,0,5.9-0.8,7.6-4.1c5.8-11.2,11.8-22.3,17.5-33.5c0.9-1.8,1-4.1,1.5-6.2L122.6,0z"/>
		<path d="M47.6,2.4c7.7,5.7,15.6,11.1,22.9,17.2c5.8,5,5.7,11.9,1,17.8c-4.3,5.2-7.4,4.7-10-1.5c-2-4.9-3.8-9.9-6.2-14.6
			s-5.6-8.7-8.2-13.1c-0.8-1.3-0.9-3.1-1.4-4.6L47.6,2.4z"/>
	</g>
</g>
</svg>
