<?xml version="1.0" encoding="utf-8"?>
<!-- Generator: Adobe Illustrator 20.0.0, SVG Export Plug-In . SVG Version: 6.00 Build 0)  -->
<svg version="1.1" id="Layer_1" xmlns="http://www.w3.org/2000/svg" xmlns:xlink="http://www.w3.org/1999/xlink" x="0px" y="0px"
	 viewBox="0 0 180 180" style="enable-background:new 0 0 180 180;" xml:space="preserve">
<title>Asset 62</title>
<g id="Layer_2">
	<g id="Layer_1-2">
		<path d="M50.6,180c-1.1-1.3-2-2.6-3.2-3.8c-4.3-4.6-8.6-9.1-3.8-16.1c1.2-1.7,1-4.5,1-6.8c0.1-21.3,0.1-42.6,0-63.9
			c0-0.7-0.1-1.4-0.2-2.1c-10.3,0-20.5-1-30.4,0.4c-6.5,0.9-9.9-0.9-13.3-6.3h42.9V0h2l16.8,8.5c0,0.3,0.1,0.8-0.1,0.9
			c-5.6,3.9-5.9,9.6-5.8,15.8c0.3,16.7,0.1,33.3,0.1,50v5.9h5.8c27,0,54-0.2,81,0.1c5.4,0.1,9.6-1.1,13.3-5c2.3-2.4,4.9-4.4,7.9-7.1
			l14.7,17.1H56.9v74.3l47.6-20.2l2,4.1l-2.3,1.5c-16.3,10.2-32.7,20.4-49,30.7c-1.3,1-2.5,2.2-3.5,3.4H50.6z"/>
	</g>
</g>
</svg>
