<?xml version="1.0" encoding="utf-8"?>
<!-- Generator: Adobe Illustrator 20.0.0, SVG Export Plug-In . SVG Version: 6.00 Build 0)  -->
<svg version="1.1" id="Layer_1" xmlns="http://www.w3.org/2000/svg" xmlns:xlink="http://www.w3.org/1999/xlink" x="0px" y="0px"
	 viewBox="0 0 180 180" style="enable-background:new 0 0 180 180;" xml:space="preserve">
<title>Asset 63</title>
<g id="Layer_2">
	<g id="Layer_1-2">
		<path d="M0,168.6c13.2-8,23.2-19.2,31.2-30.3c-5.8-13.2-11.2-25.4-16.4-37.8c-0.6-1.3,0.3-3.2,0.5-4.8l1.3,0.2l17.8,31.4l1.5-0.3
			c6.8-15.9,9.3-32.8,11.9-50.4c-7.7,0-15.2-0.6-22.5,0.3c-2.7,0.3-5,4-7.3,6L8.1,72.8C17.9,70.7,20,61.5,24.3,54
			c6-10.5,11.7-21.2,17.5-31.8c-10.2,0-19.9-0.2-29.6,0.1c-4.2,0.2-4.5,0.6-9.7-6.1h6.2c8.5,0,17-0.5,25.5,0.2
			c6.7,0.5,11.5-1.8,15.3-7.1l10.9,11.5C51.3,23.1,49,31.5,44.9,38.3c-5.7,9.2-11,18.6-16.5,27.9c-0.8,1.4-1.5,2.9-2.7,5.1
			c7.4,0,14.2,0.6,20.9-0.3c2.5-0.3,4.6-3.8,7.4-6.3l10.6,9.8c-10.4,6.6-7.3,18-10.4,27.2c-3.7,11-6.7,22.2-10.2,34.2
			c8,7.6,18.8,12.5,30.4,15.6c22,6,44.4,5.9,66.9,4.6c12.9-0.8,25.8-2.3,38.8-3.5v4c-4.3,3.2-8.6,6.5-12.9,9.5
			c-1.5,1-3.4,2.1-5.1,2.1c-17.8,0.2-35.6,0.7-53.4-0.1c-11.9-0.7-23.7-2.5-35.3-5.3c-13.2-3-24.8-10-35.1-19.3
			c-9.4,11.1-20.7,19.3-32.9,26.2c-1.4,0.8-3.5,0.6-5.2,0.9L0,168.6z"/>
	</g>
</g>
</svg>
