<?xml version="1.0" encoding="utf-8"?>
<!-- Generator: Adobe Illustrator 20.0.0, SVG Export Plug-In . SVG Version: 6.00 Build 0)  -->
<svg version="1.1" id="Layer_1" xmlns="http://www.w3.org/2000/svg" xmlns:xlink="http://www.w3.org/1999/xlink" x="0px" y="0px"
	 viewBox="0 0 180 180" style="enable-background:new 0 0 180 180;" xml:space="preserve">
<title>Asset 64</title>
<g id="Layer_2">
	<g id="Layer_1-2">
		<path d="M180,143.2c-53,0-106,0-159,0c-1.5-0.1-3,0-4.5,0.4C10,145.9,4.4,145,0,139.2v-1h54.3V36.7l17.4,7.9
			c-6.8,3.5-5.8,9.2-5.8,14.6c0,24.3,0,48.7,0,73c0,1.8,0,3.6,0,5.8h46.4V35.2l17.4,8.7c-6.3,2.7-5.8,7.5-5.8,12.5
			c0.1,25.3,0.1,50.7,0.1,76c0,1.8,0,3.6,0,5.9c8.7,0,17,0.1,25.3-0.1c1.2,0,2.7-1.2,3.7-2.2c3.3-3.3,6.4-6.8,9.9-10.5l17.2,16.7
			V143.2z"/>
	</g>
</g>
</svg>
