<?xml version="1.0" encoding="utf-8"?>
<!-- Generator: Adobe Illustrator 20.0.0, SVG Export Plug-In . SVG Version: 6.00 Build 0)  -->
<svg version="1.1" id="Layer_1" xmlns="http://www.w3.org/2000/svg" xmlns:xlink="http://www.w3.org/1999/xlink" x="0px" y="0px"
	 viewBox="0 0 180 180" style="enable-background:new 0 0 180 180;" xml:space="preserve">
<title>Asset 65</title>
<g id="Layer_2">
	<g id="Layer_1-2">
		<path d="M180,26.2c-5.8,4-8.6,8.8-8.5,16.5c0.6,34.8,0.3,69.6,0.5,104.4c0.1,13.5,0.1,13.5-13.8,18.2V147h-6.3
			c-40.7,0-81.3,0.1-122-0.1c-5.8,0-10.3,0.9-13.5,6.1c-0.9,1.2-2,2.2-3.1,3.1L0,144.2v-2c5.7-3.3,7.5-8,7.4-14.8
			C7,93.8,7.1,60.1,7,26.5c0-3.6-0.3-7.2-0.6-11.9L28,23.9c-0.1,0.7,0,0.9-0.1,1c-7.3,4.4-7,11.3-6.9,18.6c0.2,30.3,0.1,60.7,0.1,91
			v5.7h136.5V14.7L180,25.2V26.2z"/>
	</g>
</g>
</svg>
