<?xml version="1.0" encoding="utf-8"?>
<!-- Generator: Adobe Illustrator 20.0.0, SVG Export Plug-In . SVG Version: 6.00 Build 0)  -->
<svg version="1.1" id="Layer_1" xmlns="http://www.w3.org/2000/svg" xmlns:xlink="http://www.w3.org/1999/xlink" x="0px" y="0px"
	 viewBox="0 0 180 180" style="enable-background:new 0 0 180 180;" xml:space="preserve">
<title>Asset 66</title>
<g id="Layer_2">
	<g id="Layer_1-2">
		<path d="M142,0c3.9,2.4,7.7,4.9,11.7,7.2c7.6,4.4,15.3,8.6,23.3,13c-0.8,0.7-1.6,1.3-2.5,1.8c-9.9,4.3-14.3,12.3-17.6,22.3
			c-14.8,45.2-31.8,89.7-50.7,133.4c-0.3,0.8-0.7,1.5-1.1,2.2H95c14.3-40.7,27.2-81.8,35.9-124.1C134.7,37.5,137,18.7,140,0L142,0z"
			/>
		<path d="M3.1,16.1l5.1-2.6c0.5,0.2,0.9,0.2,1,0.4c16,24.1,32,48.3,43.3,75.1c4.7,11.1,7.9,22.7,6.4,34.9
			c-1.1,8.6-3.8,16.6-10.8,22.3c-5.1,4.2-9.2,3.3-10.8-3.2c-1.9-7.7-2.6-15.7-3.8-23.6C28.4,85.2,18.1,52.4,4.8,20.4L3.1,16.1z"/>
	</g>
</g>
</svg>
