<?xml version="1.0" encoding="utf-8"?>
<!-- Generator: Adobe Illustrator 20.0.0, SVG Export Plug-In . SVG Version: 6.00 Build 0)  -->
<svg version="1.1" id="Layer_1" xmlns="http://www.w3.org/2000/svg" xmlns:xlink="http://www.w3.org/1999/xlink" x="0px" y="0px"
	 viewBox="0 0 180 180" style="enable-background:new 0 0 180 180;" xml:space="preserve">
<title>Asset 67</title>
<g id="Layer_2">
	<g id="Layer_1-2">
		<path d="M12.7,180l-0.3-4.1c31.5-7.6,61.2-18.9,85.9-43L50,115.4c7.7-20.9,15.9-41.8,23-63c5.2-15.7,9-31.9,13.4-48
			C86.7,3,86.8,1.5,86.7,0h2l17,9.7C94.3,18.2,93.6,32,88.9,43.6c-8.9,22-16.7,44.4-25,66.6c-0.4,1.1-0.7,2.2-1.1,3.5l40.8,12.1
			c8.8-15,14.9-30.8,20.1-46.9c1.5-4.6,3-9.2,4-13.9c0.7-3.4,2.2-4.8,5.7-4.4c2.9,0.3,5.9,0.1,9.8,0.1
			c-6.7,24.4-15.3,47.2-27.2,68.9c10.2,4.2,20.4,8.2,30.3,12.7c4.8,2.2,9.5,4.9,13.7,8c5.6,4.1,7.9,10.2,7.5,17.1
			c-0.3,4.8-2.9,6.2-7.1,3.9c-2.2-1.2-4.2-2.7-6-4.4c-13.1-12.4-28.7-20.9-44.8-28.7c-25.5,23-56.6,33.5-89.2,40.8
			c-0.9,0.3-1.8,0.7-2.7,1.1H12.7z"/>
	</g>
</g>
</svg>
