<?xml version="1.0" encoding="utf-8"?>
<!-- Generator: Adobe Illustrator 20.0.0, SVG Export Plug-In . SVG Version: 6.00 Build 0)  -->
<svg version="1.1" id="Layer_1" xmlns="http://www.w3.org/2000/svg" xmlns:xlink="http://www.w3.org/1999/xlink" x="0px" y="0px"
	 viewBox="0 0 180 180" style="enable-background:new 0 0 180 180;" xml:space="preserve">
<title>Asset 68</title>
<g id="Layer_2">
	<g id="Layer_1-2">
		<path d="M58.3,0l19.4,8.1c-7.4,4.7-5.8,11.7-5.5,18.2c1,24,3,47.8,9.1,71.1c2.1,7.7,4.9,15.3,8.1,22.6
			c12-17.6,18.3-37.4,25.7-57.7l17.4,13.3c-7.8,1.9-9.2,7.9-11.8,13.3c-7.3,14.7-14.9,29.3-22.7,44.4c8.8,10.3,19.4,20.2,33.5,26.3
			c3-10.5,5.7-20.4,8.6-30.2c0.4-1.2,1.8-2.2,2.7-3.2c0.4,1.3,1.3,2.6,1.2,3.8c-0.6,7.5-1.2,14.9-2.2,22.3c-1,7.8-0.2,15.2,3.6,22.2
			c0.4,1.1,0.7,2.3,0.8,3.4c-3-0.2-5.6-0.1-8-0.6c-19.8-4.4-34.5-16.6-47.3-31.5l-2.8-3.2c-3.6,3.3-6.9,6.4-10.4,9.5
			c-11.7,10.6-25,19.5-39.4,26.2c-0.8,0.5-1.6,1-2.3,1.7h-2c-2.2-3.2,0.4-4.3,2.5-5.7c15.4-10.3,29.5-22.1,41.4-36.5
			c2.7-3.3,2.9-5.7,1.1-9.6c-8.8-18.1-13.1-37.6-15.6-57.4c-3-23.5-5-47.2-7.4-70.8H58.3z"/>
	</g>
</g>
</svg>
