<?xml version="1.0" encoding="utf-8"?>
<!-- Generator: Adobe Illustrator 20.0.0, SVG Export Plug-In . SVG Version: 6.00 Build 0)  -->
<svg version="1.1" id="Layer_1" xmlns="http://www.w3.org/2000/svg" xmlns:xlink="http://www.w3.org/1999/xlink" x="0px" y="0px"
	 viewBox="0 0 180 180" style="enable-background:new 0 0 180 180;" xml:space="preserve">
<title>Asset 69</title>
<g id="Layer_2">
	<g id="Layer_1-2">
		<path d="M180,107.7c-11.3,1.3-18.9,8.3-25.8,16.4c-1.8,2.1-3.2,3.5-5.9,0.6l9.4-18.3H20.4c-1.1,20.4-8.2,27.7-20.4,21.3v-5
			C8,114,12,103.4,13.8,92c0.5-3.1,1.6-4.1,5-3.1l1.5,11.6h61.6V50l20,7.8c-9.1,5-7.1,12.8-7.2,20.1c0,7.4,0,14.9,0,22.8
			c5.1,0,9.8,0.2,14.4-0.1c1.4-0.3,2.6-1.2,3.3-2.4c8.1-13.1,16.2-26.2,24.6-39.9L150.7,69L117,99.2l0.6,1.6h6.1c9,0,18-0.2,27,0.1
			c4.7,0.2,8.4-0.7,10.9-5.1c0.8-1.4,2.1-2.6,3.6-4.3l14.9,15.3V107.7z"/>
		<path d="M29.2,60.9c2.3-0.5,4-1.4,4.9-0.9c8.2,4.3,16.6,8.3,24.2,13.5c7.6,5.2,7.3,15.9,0.5,22.1c-2.8,2.6-4.5,1.6-7.1-2.7
			c-4.8-8.1-9.9-16-15-23.8C34.9,66.6,32.5,64.5,29.2,60.9z"/>
	</g>
</g>
</svg>
