<?xml version="1.0" encoding="utf-8"?>
<!-- Generator: Adobe Illustrator 20.0.0, SVG Export Plug-In . SVG Version: 6.00 Build 0)  -->
<svg version="1.1" id="Layer_1" xmlns="http://www.w3.org/2000/svg" xmlns:xlink="http://www.w3.org/1999/xlink" x="0px" y="0px"
	 viewBox="0 0 180 180" style="enable-background:new 0 0 180 180;" xml:space="preserve">
<title>Asset 70</title>
<g id="Layer_2">
	<g id="Layer_1-2">
		<path d="M180,52c-4.9,1.1-8.9,4.4-11.1,8.9c-13.4,26.4-29.5,51.4-47.9,74.6c-2.3,2.6-3.5,6-3.3,9.5c0.2,8.3,0,16.7,0.1,25
			c0,2.8-0.8,4-3.7,3.8c-3.3-0.2-6.6,0-10.1,0V6.3c3.9,0,7.5-0.3,11.1,0.2c1,0.1,2.6,2.3,2.6,3.6c0.2,7.3,0.1,14.7,0.1,22
			c0,30.5,0,61,0,91.5v5.3c18.2-29,33.5-59,40.7-93.3L180,50V52z"/>
		<path d="M0,38c1.9,0.5,4.7,0.4,5.4,1.6C15.7,56.8,26.1,74,35.6,91.6c4.6,8.4,5.8,18.3,3.2,27.6c-1,3.8-3.3,7.5-5.7,10.8
			c-1,1.4-4.2,3-5.3,2.4c-1.7-0.9-3.1-3.4-3.6-5.5c-1.6-7.8-2.8-15.7-4.2-23.5C16.3,82.3,9.4,62.1,1.2,42.3C1,41.8,0.4,41.5,0,41
			C0,40,0,39,0,38z"/>
		<path d="M69.6,173.5H56V6.3c3.8,0,7.5-0.2,11,0.1c1,0.1,2,1.6,2.6,2.7c0.4,0.6,0.1,1.6,0.1,2.5c0,52.5,0,105,0,157.5
			C69.7,170.3,69.6,171.6,69.6,173.5z"/>
	</g>
</g>
</svg>
