<?xml version="1.0" encoding="utf-8"?>
<!-- Generator: Adobe Illustrator 20.0.0, SVG Export Plug-In . SVG Version: 6.00 Build 0)  -->
<svg version="1.1" id="Layer_1" xmlns="http://www.w3.org/2000/svg" xmlns:xlink="http://www.w3.org/1999/xlink" x="0px" y="0px"
	 viewBox="0 0 180 180" style="enable-background:new 0 0 180 180;" xml:space="preserve">
<title>Asset 71</title>
<g id="Layer_2">
	<g id="Layer_1-2">
		<path d="M180,47c-6,4-8.1,9.4-7.9,16.9c0.8,28.4,0.9,56.9,1,85.4c-0.2,1.6-1.1,3.1-2.5,3.9c-4,1.9-8.3,3.2-13.1,5V146
			c-2.1-0.1-3.7-0.2-5.3-0.2c-41.5,0-83-0.1-124.4,0.1c-2.4,0-5.1,1.6-7.2,3.1c-2.1,1.5-3.9,4-5.9,6.2L0,143v-2
			c5.1-3.6,8-7.9,7.9-14.8C7.2,96.9,7.1,67.6,6.8,38.3c0.1-0.9,0.2-1.8,0.4-2.7l23,10.5c-0.1,0.6-0.1,0.8-0.2,0.9
			c-7.8,5.5-7.4,13.5-7.3,21.7c0.2,21.5,0.1,43,0.1,64.4c0,1.8,0,3.6,0,5.7h133.9V35.6L180,46V47z"/>
		<path d="M91.1,65.6c-13.7,28.5-34,50.3-62.3,64c-2.2-2.6-1.6-4.2,1-6C63.1,100,79.3,66.8,84.2,27.2c0.1-0.8,0.2-1.6,0.4-2.5
			c0.2-0.8,0.4-1.6,0.7-2.9l20.6,9.3c-3.7,8.2-7.2,16.2-10.8,24.1c-1.6,3.4-1,5.4,2.1,7.9c11.9,9.6,23.6,19.5,35,29.7
			c5.7,5.1,9.6,11.6,8.9,19.8c-0.4,4.5-1,10.1-6,10.8c-2.4,0.3-6.6-4.2-8.1-7.3c-8.2-17-19.2-31.9-31.7-45.8
			C94,68.8,92.8,67.4,91.1,65.6z"/>
	</g>
</g>
</svg>
