<?xml version="1.0" encoding="utf-8"?>
<!-- Generator: Adobe Illustrator 20.0.0, SVG Export Plug-In . SVG Version: 6.00 Build 0)  -->
<svg version="1.1" id="Layer_1" xmlns="http://www.w3.org/2000/svg" xmlns:xlink="http://www.w3.org/1999/xlink" x="0px" y="0px"
	 viewBox="0 0 180 180" style="enable-background:new 0 0 180 180;" xml:space="preserve">
<title>Asset 72</title>
<g id="Layer_2">
	<g id="Layer_1-2">
		<path d="M140,0l21.5,16.7c1,0.8,2.1,1.6,3.5,2.7c-0.8,0.6-1.3,1.2-2,1.4c-8.2,2.2-12.4,8.1-16.3,15.2
			c-10.2,18.3-21.2,36-32.3,54.5c4.7,4.3,10.3,9,15.4,14.2c8.1,8.3,16.3,16.7,23.8,25.5c8.9,10.5,9.5,22.7,5,35.2
			c-2.2,6.2-6,7-10.2,1.9c-3.5-4.3-6.5-8.8-9.1-13.7c-10-18.1-22.5-34.5-36.3-50.4c-7,7.9-13.8,15.6-20.7,23.1
			c-17.8,19.4-37.9,36.6-59.8,51.3c-0.9,0.7-1.7,1.4-2.5,2.2h-3l-2-3.7c30.3-23.8,54.8-53,77.3-85.7L26.8,20.5l3.4-3.7l72.3,61.8
			c9-17.9,18.1-35.2,26.4-52.8C132.7,17.5,135,8.6,138,0H140z"/>
	</g>
</g>
</svg>
