<?xml version="1.0" encoding="utf-8"?>
<!-- Generator: Adobe Illustrator 20.0.0, SVG Export Plug-In . SVG Version: 6.00 Build 0)  -->
<svg version="1.1" id="Layer_1" xmlns="http://www.w3.org/2000/svg" xmlns:xlink="http://www.w3.org/1999/xlink" x="0px" y="0px"
	 viewBox="0 0 180 180" style="enable-background:new 0 0 180 180;" xml:space="preserve">
<title>Asset 73</title>
<g id="Layer_2">
	<g id="Layer_1-2">
		<path d="M180,163.7c-7.2-0.5-13,2.1-17.2,8.6c-10-9-18.7-19.3-25.8-30.7c-14.8-23.2-23-48.9-27.8-75.8c-3.5-20-6-40.1-8.9-60.2
			c-0.1-1.5-0.1-2.9,0-4.4l15,5.9c-0.1,0.6,0,1.1-0.2,1.2c-5,2.3-6.2,5.9-5.3,11.5c5,30.7,9.9,61.4,23.2,89.9
			c8.3,17.7,21.1,33,37,44.4c3,2.2,6.6,3.7,10,5.5L180,163.7z"/>
		<path d="M0,176.7c19.3-16.7,34.1-38,43.1-61.9c9.9-26.2,14.6-53.4,16-81.2c0.3-6.6,0.8-13.2,1.2-20.5l19.2,8.7
			c-10.2,8.4-7.8,20-9.4,30.3c-4.3,26.8-9.2,53.2-22.6,77.5C36.9,148.9,22.5,164.7,5.2,178c-1.2,0.9-3.4,0.5-5.2,0.7V176.7z"/>
	</g>
</g>
</svg>
