<?xml version="1.0" encoding="utf-8"?>
<!-- Generator: Adobe Illustrator 20.0.0, SVG Export Plug-In . SVG Version: 6.00 Build 0)  -->
<svg version="1.1" id="Layer_1" xmlns="http://www.w3.org/2000/svg" xmlns:xlink="http://www.w3.org/1999/xlink" x="0px" y="0px"
	 viewBox="0 0 180 180" style="enable-background:new 0 0 180 180;" xml:space="preserve">
<title>Asset 74</title>
<g id="Layer_2">
	<g id="Layer_1-2">
		<path d="M180,164.5c-8.6,0.5-16.3,3.1-21.9,11.1c-44.3-33.2-62.8-79.4-68.1-131.5c-2.9,15.3-5.2,31.3-9,47
			c-9,37.6-32,64.3-66.1,81.8c-3.5,1.8-7.1,3.7-10.8,5.2c-1.2,0.5-2.8-0.3-4.3-0.5v-2c0.6,0,1.3-0.2,1.9-0.4
			C40.3,151.9,64.7,119.2,71.2,74c3.3-23.1,5.4-46.2,5.1-69.6c0-0.6,0.1-1.2,0.2-2.6l23.2,10c-8.1,5.5-7.1,12.9-5.8,20.8
			c4.2,26.2,10.2,51.9,23.2,75.2c10.9,19.4,24.4,36.6,45.1,46.5c5.6,2.7,11.9,4.1,17.8,6.1V164.5z"/>
	</g>
</g>
</svg>
