<?xml version="1.0" encoding="utf-8"?>
<!-- Generator: Adobe Illustrator 20.0.0, SVG Export Plug-In . SVG Version: 6.00 Build 0)  -->
<svg version="1.1" id="Layer_1" xmlns="http://www.w3.org/2000/svg" xmlns:xlink="http://www.w3.org/1999/xlink" x="0px" y="0px"
	 viewBox="0 0 180 180" style="enable-background:new 0 0 180 180;" xml:space="preserve">
<title>Asset 75</title>
<g id="Layer_2">
	<g id="Layer_1-2">
		<path d="M180,18.9H96.8c0,2.4,0,4.4,0,6.4c0,42.6,0,85.3,0,127.9c0,12.5-7.4,21.2-20,23.7c-3.4-10.8-13-13.7-22.2-17.1
			c-1.7-0.6-3.2-2-4.7-3.1l0.8-1.6c3.4,0.4,6.8,0.8,10.2,1.1c3.1,0.3,6.3,0.8,9.4,0.9c12.1,0.4,14,0.2,13.9-13.3
			c-0.3-39.5-0.1-78.9-0.1-118.4v-5.7c-0.6-0.4-0.9-0.7-1.2-0.7c-21.3,0-42.6-0.1-63.9-0.1c-0.5,0-1,0-1.5,0.2
			C10.8,21.4,4.7,21,0,14.9v-1c2.2-0.1,4.3-0.3,6.5-0.3c46.7,0,93.3,0,140-0.1c2.8,0,6-1.5,8.5-3.1c3.6-2.2,6.7-5.2,9.2-7.2
			L180,17.9V18.9z"/>
	</g>
</g>
</svg>
