<?xml version="1.0" encoding="utf-8"?>
<!-- Generator: Adobe Illustrator 20.0.0, SVG Export Plug-In . SVG Version: 6.00 Build 0)  -->
<svg version="1.1" id="Layer_1" xmlns="http://www.w3.org/2000/svg" xmlns:xlink="http://www.w3.org/1999/xlink" x="0px" y="0px"
	 viewBox="0 0 180 180" style="enable-background:new 0 0 180 180;" xml:space="preserve">
<title>Asset 76</title>
<g id="Layer_2">
	<g id="Layer_1-2">
		<path d="M12.8,180c1-1.6,1.6-4,3.1-4.8c12.5-6.7,23.6-15.8,32.7-26.7c7.6-8.9,10.5-19.8,12.7-31c2.7-14.4,3.2-29,2.7-44.9
			l-31.3,7.6l-8.4-15.5c12.4-2.4,20.1-10.7,27.5-18.9C64.3,32,76.4,17.6,83.8,0h2l14,12.7C79.3,27.3,62.5,46,45.2,65.1l97.4-4.3
			l0.9-1.4l-27-29.2c1.8-0.2,3.6-1,4.5-0.4c13.5,8.9,27.2,17.4,40,27.1c7.7,5.8,7.8,16.6,2.1,24.3c-2.9,3.9-5,3.8-7.4-0.4
			s-4.8-8.3-7.1-12.6c-1-2.4-3.5-3.7-6-3.2c-21,2.2-42,4.2-63,6.3c-0.8,0.2-1.6,0.4-2.4,0.7c-0.5,10.7-0.3,21.4-1.7,31.9
			c-1.3,10.7-3.5,21.3-6.5,31.6c-3.9,13-13.1,22.4-24.4,29.3c-9.3,5.7-19.2,10.2-28.9,15.2H12.8z"/>
	</g>
</g>
</svg>
