<?xml version="1.0" encoding="utf-8"?>
<!-- Generator: Adobe Illustrator 20.0.0, SVG Export Plug-In . SVG Version: 6.00 Build 0)  -->
<svg version="1.1" id="Layer_1" xmlns="http://www.w3.org/2000/svg" xmlns:xlink="http://www.w3.org/1999/xlink" x="0px" y="0px"
	 viewBox="0 0 180 180" style="enable-background:new 0 0 180 180;" xml:space="preserve">
<title>Asset 77</title>
<g id="Layer_2">
	<g id="Layer_1-2">
		<path d="M89.8,0l17,8.7c-7.9,4.1-6.2,11.2-6.2,17.7c0,22.5,0,45,0,67.5v6.2h5.5c15.2,0,30.3,0.1,45.5-0.1c3.4,0,4.6,1,3.5,4.9
			h-54.5c0,14.7,0,28.8,0,42.9c0,7.7,0.3,15.3,0.1,23c-0.2,1.5-1.1,2.8-2.3,3.7c-2.8,2-5.8,3.6-8.7,5.4h-2v-74.7H36.3
			c-0.5,3.2,0.1,7.2-1.6,9.3c-2.3,2.7-6.4,3.8-10.2,5.8V39.2c8.3,1.6,11.3,5.1,11.3,13.3c0,15.7,0,31.3,0,47.3h52V0H89.8z"/>
	</g>
</g>
</svg>
