<?xml version="1.0" encoding="utf-8"?>
<!-- Generator: Adobe Illustrator 20.0.0, SVG Export Plug-In . SVG Version: 6.00 Build 0)  -->
<svg version="1.1" id="Layer_1" xmlns="http://www.w3.org/2000/svg" xmlns:xlink="http://www.w3.org/1999/xlink" x="0px" y="0px"
	 viewBox="0 0 180 180" style="enable-background:new 0 0 180 180;" xml:space="preserve">
<title>Asset 78</title>
<g id="Layer_2">
	<g id="Layer_1-2">
		<path d="M180,36.9c-5.9,2.7-8,7-7.9,13.8c0.5,21.6,0.1,43.3,0.2,64.9c0,10.3,0.3,20.6,0.8,30.9c0.2,3.5-0.9,5.2-4.2,6
			s-6.2,2.2-9.8,3.5v-15.9c-0.7-0.2-1.5-0.4-2.2-0.5c-45.3,0-90.5,0.1-135.8,0.1c-0.8-0.1-1.7,0-2.5,0.2c-7.4,2.8-13.7,1.3-18.5-5.1
			v-1h158.7v-46h-5.5c-36.2,0-72.3,0-108.5,0c-4.5,0-9,0.4-13.4,1.1c-8.2,1.3-9.2,0.9-14-6.7h141.4V38.9h-5.1
			c-39.8,0-79.7,0-119.5,0c-4.8,0-9.6,0.5-14.4,1.3C12,41.5,10.5,41,5.8,33.1h5.6c46,0,92-0.1,138,0.1c5.7,0,10-1.1,12.8-6.1
			c0.8-1.2,1.7-2.2,2.7-3.2l15.1,11V36.9z"/>
	</g>
</g>
</svg>
