<?xml version="1.0" encoding="utf-8"?>
<!-- Generator: Adobe Illustrator 20.0.0, SVG Export Plug-In . SVG Version: 6.00 Build 0)  -->
<svg version="1.1" id="Layer_1" xmlns="http://www.w3.org/2000/svg" xmlns:xlink="http://www.w3.org/1999/xlink" x="0px" y="0px"
	 viewBox="0 0 180 180" style="enable-background:new 0 0 180 180;" xml:space="preserve">
<title>Asset 79</title>
<g id="Layer_2">
	<g id="Layer_1-2">
		<path d="M180,161.4c-6.9,11.5-18.2,14.6-30.4,14.6c-40.3,0.2-80.7,0.2-121,0c-4.3-0.1-8.6-0.9-12.6-2.3
			C4.1,169.5-0.8,160,1.8,147.6c3.4-16.2,12.7-29.3,23.2-41.3c25-28.5,50.5-56.7,75.8-85l2.4-2.7c-2.2-0.1-3.8-0.3-5.4-0.3
			c-22.3,0-44.7-0.1-67,0.1c-6.3,0.2-12.6,0.8-18.8,1.9c-2.8,0.4-5.1,0.5-7-2c-1.5-1.7-3.2-3.4-5-4.9v-1c33.3,0,66.7,0.1,100,0
			c2.1-0.2,4-0.9,5.6-2.2c2.5-2,4.9-4.2,7.2-6.5L129.2,20c-16.7,6.9-29.3,21-41.6,34.8c-19.8,22.2-38.8,45.2-57.5,68.4
			c-5.5,6.9-9.5,15.3-12.9,23.5c-3.8,9.3,1.1,16.3,11.2,17.6c2.3,0.2,4.7,0.3,7,0.3c35.2,0,70.3-0.2,105.5,0.2
			c9.7,0.1,15.5-6,16.1-15.1c0.9-13.1,1.8-26.2,2.6-39.7c3.2-1.5,4.4-0.3,4.7,3.6c0.7,10.1,1.5,20.2,2.7,30.3
			c1,9.2,5,13.6,12.9,15.5L180,161.4z"/>
	</g>
</g>
</svg>
