<?xml version="1.0" encoding="utf-8"?>
<!-- Generator: Adobe Illustrator 20.0.0, SVG Export Plug-In . SVG Version: 6.00 Build 0)  -->
<svg version="1.1" id="Layer_1" xmlns="http://www.w3.org/2000/svg" xmlns:xlink="http://www.w3.org/1999/xlink" x="0px" y="0px"
	 viewBox="0 0 180 180" style="enable-background:new 0 0 180 180;" xml:space="preserve">
<title>Asset 80</title>
<g id="Layer_2">
	<g id="Layer_1-2">
		<path d="M180,163.9c-0.5-0.1-1-0.2-1.5-0.2c-53,0-105.9,0.1-158.9,0.2c-2.3-0.1-4.7,0.2-6.9,1c-6.1,2.4-8.9-1.6-12.8-6.2h83.8
			V31.1c-1.6-0.1-3.2-0.2-4.8-0.2c-13.2,0-26.3-0.1-39.5,0c-4.8,0-9.8-0.1-14.4,1.1c-6.1,1.6-10.2-0.1-13.7-6.3h5.9
			c38.8,0,77.6-0.1,116.4,0.1c5.4,0,9.6-1.1,13-5.4c1.8-2.1,3.6-4.1,5.6-6l16.4,16.4H96.4v127.9H120c2,0,4-0.1,6,0
			c13.8,0.8,27.7,1.8,35.1-14.1l19,17.4L180,163.9z"/>
	</g>
</g>
</svg>
